<?xml version="1.0" standalone="no"?>
 <!DOCTYPE svg PUBLIC "-//W3C//DTD SVG 1.1//EN" 
 "http://www.w3.org/Graphics/SVG/1.1/DTD/svg11.dtd"> 
<svg xmlns="http://www.w3.org/2000/svg" version="1.1" 
    width="29.7002cm" height="21.0007cm" viewBox="0 0 116930 82680 ">
<title>SVG Picture created as everled.svg date 2017/06/25 20:14:07 </title>
  <desc>Picture generated by Eeschema-SVG </desc>
<g style="fill:#000000; fill-opacity:1;stroke:#000000; stroke-opacity:1;
stroke-linecap:round; stroke-linejoin:round; "
 transform="translate(0 0) scale(1 1)">
</g>
<g style="fill:#000000; fill-opacity:0.0; 
stroke:#000000; stroke-width:0; stroke-opacity:1; 
stroke-linecap:round; stroke-linejoin:round;">
</g>
<g style="fill:#840000; fill-opacity:0.0; 
stroke:#840000; stroke-width:0; stroke-opacity:1; 
stroke-linecap:round; stroke-linejoin:round;">
</g>
<g style="fill:#840000; fill-opacity:0.0; 
stroke:#840000; stroke-width:60; stroke-opacity:1; 
stroke-linecap:round; stroke-linejoin:round;">
<path d="M39050 28670
L38990 28640
L38900 28640
L38820 28670
L38760 28730
L38730 28780
L38700 28900
L38700 28980
L38730 29100
L38760 29160
L38820 29210
L38900 29240
L38960 29240
L39050 29210
L39080 29180
L39080 28980
L38960 28980
" />
<path d="M39330 29240
L39330 28640
L39680 29240
L39680 28640
" />
<path d="M39960 29240
L39960 28640
L40110 28640
L40190 28670
L40250 28730
L40280 28780
L40310 28900
L40310 28980
L40280 29100
L40250 29160
L40190 29210
L40110 29240
L39960 29240
" />
<path d="M38550 26240
L38550 25640
L38750 26070
L38950 25640
L38950 26240
" />
<path d="M39240 26240
L39240 25640
" />
<path d="M39500 26210
L39590 26240
L39730 26240
L39790 26210
L39820 26180
L39850 26130
L39850 26070
L39820 26010
L39790 25980
L39730 25960
L39620 25930
L39560 25900
L39530 25870
L39500 25810
L39500 25760
L39530 25700
L39560 25670
L39620 25640
L39760 25640
L39850 25670
" />
<path d="M40220 25640
L40330 25640
L40390 25670
L40450 25730
L40470 25840
L40470 26040
L40450 26160
L40390 26210
L40330 26240
L40220 26240
L40160 26210
L40100 26160
L40070 26040
L40070 25840
L40100 25730
L40160 25670
L40220 25640
" />
<path d="M38550 25240
L38550 24640
L38750 25070
L38950 24640
L38950 25240
" />
<path d="M39360 24640
L39470 24640
L39530 24670
L39590 24730
L39610 24840
L39610 25040
L39590 25160
L39530 25210
L39470 25240
L39360 25240
L39300 25210
L39240 25160
L39210 25040
L39210 24840
L39240 24730
L39300 24670
L39360 24640
" />
<path d="M39840 25210
L39930 25240
L40070 25240
L40130 25210
L40160 25180
L40190 25130
L40190 25070
L40160 25010
L40130 24980
L40070 24960
L39960 24930
L39900 24900
L39870 24870
L39840 24810
L39840 24760
L39870 24700
L39900 24670
L39960 24640
L40100 24640
L40190 24670
" />
<path d="M40440 25240
L40440 24640
" />
<path d="M39180 30240
L38980 29960
" />
<path d="M38830 30240
L38830 29640
L39060 29640
L39120 29670
L39150 29700
L39180 29760
L39180 29840
L39150 29900
L39120 29930
L39060 29960
L38830 29960
" />
<path d="M39400 30210
L39490 30240
L39630 30240
L39690 30210
L39720 30180
L39750 30130
L39750 30070
L39720 30010
L39690 29980
L39630 29960
L39520 29930
L39460 29900
L39430 29870
L39400 29810
L39400 29760
L39430 29700
L39460 29670
L39520 29640
L39660 29640
L39750 29670
" />
<path d="M39920 29640
L40260 29640
" />
<path d="M40090 30240
L40090 29640
" />
<path d="M38730 27210
L38820 27240
L38960 27240
L39020 27210
L39050 27180
L39080 27130
L39080 27070
L39050 27010
L39020 26980
L38960 26960
L38850 26930
L38790 26900
L38760 26870
L38730 26810
L38730 26760
L38760 26700
L38790 26670
L38850 26640
L38990 26640
L39080 26670
" />
<path d="M39680 27180
L39650 27210
L39560 27240
L39500 27240
L39420 27210
L39360 27160
L39330 27100
L39300 26980
L39300 26900
L39330 26780
L39360 26730
L39420 26670
L39500 26640
L39560 26640
L39650 26670
L39680 26700
" />
<path d="M39930 27240
L39930 26640
" />
<path d="M40280 27240
L40020 26900
" />
<path d="M40280 26640
L39930 26980
" />
<path d="M38710 27640
L38910 28240
L39110 27640
" />
<path d="M39650 28180
L39620 28210
L39530 28240
L39470 28240
L39390 28210
L39330 28160
L39300 28100
L39270 27980
L39270 27900
L39300 27780
L39330 27730
L39390 27670
L39470 27640
L39530 27640
L39620 27670
L39650 27700
" />
<path d="M40250 28180
L40220 28210
L40130 28240
L40070 28240
L39990 28210
L39930 28160
L39900 28100
L39870 27980
L39870 27900
L39900 27780
L39930 27730
L39990 27670
L40070 27640
L40130 27640
L40220 27670
L40250 27700
" />
<rect x="35900" y="24950" width="600" height="100" rx="0" />
<rect x="35900" y="25950" width="600" height="100" rx="0" />
<rect x="35900" y="26950" width="600" height="100" rx="0" />
<rect x="35900" y="27950" width="600" height="100" rx="0" />
<rect x="35900" y="28950" width="600" height="100" rx="0" />
<rect x="35900" y="29950" width="600" height="100" rx="0" />
<rect x="35500" y="24500" width="1000" height="6000" rx="0" />
<path d="M36500 30000
L38000 30000
" />
<path d="M37390 29880
L37110 29880
" />
<path d="M37250 29880
L37250 29380
L37200 29450
L37150 29500
L37110 29520
" />
<path d="M36500 29000
L38000 29000
" />
<path d="M37110 28420
L37130 28400
L37180 28380
L37300 28380
L37340 28400
L37370 28420
L37390 28470
L37390 28520
L37370 28590
L37080 28880
L37390 28880
" />
<path d="M36500 28000
L38000 28000
" />
<path d="M37080 27380
L37390 27380
L37220 27570
L37300 27570
L37340 27590
L37370 27610
L37390 27660
L37390 27780
L37370 27830
L37340 27850
L37300 27880
L37150 27880
L37110 27850
L37080 27830
" />
<path d="M36500 27000
L38000 27000
" />
<path d="M37340 26540
L37340 26880
" />
<path d="M37220 26350
L37110 26710
L37410 26710
" />
<path d="M36500 26000
L38000 26000
" />
<path d="M37370 25380
L37130 25380
L37110 25610
L37130 25590
L37180 25570
L37300 25570
L37340 25590
L37370 25610
L37390 25660
L37390 25780
L37370 25830
L37340 25850
L37300 25880
L37180 25880
L37130 25850
L37110 25830
" />
<path d="M36500 25000
L38000 25000
" />
<path d="M37340 24380
L37250 24380
L37200 24400
L37180 24420
L37130 24500
L37110 24590
L37110 24780
L37130 24830
L37150 24850
L37200 24880
L37300 24880
L37340 24850
L37370 24830
L37390 24780
L37390 24660
L37370 24610
L37340 24590
L37300 24570
L37200 24570
L37150 24590
L37130 24610
L37110 24660
" />
</g>
<g style="fill:#008484; fill-opacity:0.0; 
stroke:#008484; stroke-width:60; stroke-opacity:1; 
stroke-linecap:round; stroke-linejoin:round;">
<path d="M35630 31190
L35630 30690
L35820 30690
L35870 30710
L35890 30730
L35910 30780
L35910 30850
L35890 30900
L35870 30920
L35820 30950
L35630 30950
" />
<path d="M36390 31190
L36110 31190
" />
<path d="M36250 31190
L36250 30690
L36200 30760
L36150 30810
L36110 30830
" />
<path d="M35190 29630
L34690 29630
" />
<path d="M35160 29410
L35190 29340
L35190 29220
L35160 29180
L35140 29150
L35090 29130
L35040 29130
L35000 29150
L34970 29180
L34950 29220
L34920 29320
L34900 29370
L34880 29390
L34830 29410
L34780 29410
L34730 29390
L34710 29370
L34690 29320
L34690 29200
L34710 29130
" />
<path d="M35190 28910
L34690 28910
L34690 28720
L34710 28670
L34730 28650
L34780 28630
L34850 28630
L34900 28650
L34920 28670
L34950 28720
L34950 28910
" />
<path d="M35230 28530
L35230 28150
" />
<path d="M34690 27820
L34690 27910
L34710 27960
L34730 27980
L34810 28030
L34900 28050
L35090 28050
L35140 28030
L35160 28010
L35190 27960
L35190 27860
L35160 27820
L35140 27790
L35090 27770
L34970 27770
L34920 27790
L34900 27820
L34880 27860
L34880 27960
L34900 28010
L34920 28030
L34970 28050
" />
<path d="M35230 27670
L35230 27290
" />
<path d="M35190 26890
L34950 27050
" />
<path d="M35190 27170
L34690 27170
L34690 26980
L34710 26930
L34730 26910
L34780 26890
L34850 26890
L34900 26910
L34920 26930
L34950 26980
L34950 27170
" />
<path d="M35160 26480
L35190 26530
L35190 26620
L35160 26670
L35110 26690
L34920 26690
L34880 26670
L34850 26620
L34850 26530
L34880 26480
L34920 26460
L34970 26460
L35020 26690
" />
<path d="M35160 26260
L35190 26220
L35190 26120
L35160 26070
L35110 26050
L35090 26050
L35040 26070
L35020 26120
L35020 26190
L35000 26240
L34950 26260
L34920 26260
L34880 26240
L34850 26190
L34850 26120
L34880 26070
" />
<path d="M35160 25650
L35190 25700
L35190 25790
L35160 25840
L35110 25860
L34920 25860
L34880 25840
L34850 25790
L34850 25700
L34880 25650
L34920 25630
L34970 25630
L35020 25860
" />
<path d="M34850 25480
L34850 25290
" />
<path d="M34690 25410
L35110 25410
L35160 25390
L35190 25340
L35190 25290
" />
</g>
<g style="fill:#008484; fill-opacity:0.0; 
stroke:#008484; stroke-width:0; stroke-opacity:1; 
stroke-linecap:round; stroke-linejoin:round;">
</g>
<g style="fill:#840000; fill-opacity:0.0; 
stroke:#840000; stroke-width:0; stroke-opacity:1; 
stroke-linecap:round; stroke-linejoin:round;">
</g>
<g style="fill:#FFFFC2; fill-opacity:0.0; 
stroke:#FFFFC2; stroke-width:0; stroke-opacity:1; 
stroke-linecap:round; stroke-linejoin:round;">
</g>
<g style="fill:#FFFFC2; fill-opacity:0.6; 
stroke:#FFFFC2; stroke-width:0; stroke-opacity:1; 
stroke-linecap:round; stroke-linejoin:round;">
<rect x="45500" y="24000" width="24000" height="7000" rx="0" />
</g>
<g style="fill:#840000; fill-opacity:0.6; 
stroke:#840000; stroke-width:0; stroke-opacity:1; 
stroke-linecap:round; stroke-linejoin:round;">
</g>
<g style="fill:#840000; fill-opacity:0.0; 
stroke:#840000; stroke-width:100; stroke-opacity:1; 
stroke-linecap:round; stroke-linejoin:round;">
<rect x="45500" y="24000" width="24000" height="7000" rx="0" />
</g>
<g style="fill:#840000; fill-opacity:0.0; 
stroke:#840000; stroke-width:60; stroke-opacity:1; 
stroke-linecap:round; stroke-linejoin:round;">
<path d="M45500 30000
L44000 30000
" />
</g>
<g style="fill:#008484; fill-opacity:0.0; 
stroke:#008484; stroke-width:60; stroke-opacity:1; 
stroke-linecap:round; stroke-linejoin:round;">
<path d="M46000 30180
L46000 29780
L46150 29780
L46190 29800
L46200 29820
L46220 29860
L46220 29910
L46200 29950
L46190 29970
L46150 29990
L46000 29990
" />
<path d="M46530 29970
L46590 29990
L46600 30010
L46620 30050
L46620 30100
L46600 30140
L46590 30160
L46550 30180
L46400 30180
L46400 29780
L46530 29780
L46570 29800
L46590 29820
L46600 29860
L46600 29900
L46590 29930
L46570 29950
L46530 29970
L46400 29970
" />
<path d="M46990 29780
L46800 29780
L46780 29970
L46800 29950
L46830 29930
L46930 29930
L46970 29950
L46990 29970
L47000 30010
L47000 30100
L46990 30140
L46970 30160
L46930 30180
L46830 30180
L46800 30160
L46780 30140
" />
<path d="M47290 30330
L47270 30310
L47230 30260
L47210 30220
L47190 30160
L47180 30070
L47180 29990
L47190 29900
L47210 29840
L47230 29800
L47270 29740
L47290 29720
" />
<path d="M47670 30180
L47540 29990
" />
<path d="M47450 30180
L47450 29780
L47600 29780
L47640 29800
L47650 29820
L47670 29860
L47670 29910
L47650 29950
L47640 29970
L47600 29990
L47450 29990
" />
<path d="M47850 29970
L47980 29970
" />
<path d="M48040 30180
L47850 30180
L47850 29780
L48040 29780
" />
<path d="M48190 30160
L48240 30180
L48340 30180
L48380 30160
L48400 30140
L48410 30100
L48410 30070
L48400 30030
L48380 30010
L48340 29990
L48260 29970
L48220 29950
L48210 29930
L48190 29900
L48190 29860
L48210 29820
L48220 29800
L48260 29780
L48360 29780
L48410 29800
" />
<path d="M48590 29970
L48720 29970
" />
<path d="M48780 30180
L48590 30180
L48590 29780
L48780 29780
" />
<path d="M48890 29780
L49120 29780
" />
<path d="M49000 30180
L49000 29780
" />
<path d="M47350 29710
L49150 29710
" />
<path d="M49530 29760
L49190 30280
" />
<path d="M49840 30180
L49840 29780
" />
<path d="M49840 30160
L49800 30180
L49720 30180
L49680 30160
L49670 30140
L49650 30100
L49650 29990
L49670 29950
L49680 29930
L49720 29910
L49800 29910
L49840 29930
" />
<path d="M49990 29780
L50080 30180
L50160 29900
L50230 30180
L50330 29780
" />
<path d="M50770 29760
L50430 30280
" />
<path d="M50890 30070
L51080 30070
" />
<path d="M50850 30180
L50980 29780
L51110 30180
" />
<path d="M51250 30180
L51250 29780
L51340 29780
L51400 29800
L51440 29840
L51450 29880
L51470 29950
L51470 30010
L51450 30090
L51440 30120
L51400 30160
L51340 30180
L51250 30180
" />
<path d="M51870 30140
L51850 30160
L51800 30180
L51760 30180
L51700 30160
L51660 30120
L51650 30090
L51630 30010
L51630 29950
L51650 29880
L51660 29840
L51700 29800
L51760 29780
L51800 29780
L51850 29800
L51870 29820
" />
<path d="M52120 29780
L52160 29780
L52200 29800
L52220 29820
L52240 29860
L52250 29930
L52250 30030
L52240 30100
L52220 30140
L52200 30160
L52160 30180
L52120 30180
L52080 30160
L52060 30140
L52050 30100
L52030 30030
L52030 29930
L52050 29860
L52060 29820
L52080 29800
L52120 29780
" />
<path d="M52710 29760
L52370 30280
" />
<path d="M52850 30180
L52850 29780
L53000 29780
L53040 29800
L53050 29820
L53070 29860
L53070 29910
L53050 29950
L53040 29970
L53000 29990
L52850 29990
" />
<path d="M53470 30140
L53450 30160
L53400 30180
L53360 30180
L53300 30160
L53260 30120
L53250 30090
L53230 30010
L53230 29950
L53250 29880
L53260 29840
L53300 29800
L53360 29780
L53400 29780
L53450 29800
L53470 29820
" />
<path d="M53650 30180
L53650 29780
" />
<path d="M53840 30180
L53840 29780
L54060 30180
L54060 29780
" />
<path d="M54200 29780
L54430 29780
" />
<path d="M54310 30180
L54310 29780
" />
<path d="M54750 29780
L54560 29780
L54540 29970
L54560 29950
L54590 29930
L54690 29930
L54730 29950
L54750 29970
L54760 30010
L54760 30100
L54750 30140
L54730 30160
L54690 30180
L54590 30180
L54560 30160
L54540 30140
" />
<path d="M54900 30330
L54920 30310
L54950 30260
L54970 30220
L54990 30160
L55010 30070
L55010 29990
L54990 29900
L54970 29840
L54950 29800
L54920 29740
L54900 29720
" />
</g>
<g style="fill:#840000; fill-opacity:0.0; 
stroke:#840000; stroke-width:60; stroke-opacity:1; 
stroke-linecap:round; stroke-linejoin:round;">
<path d="M44860 29880
L44640 29880
" />
<path d="M44750 29880
L44750 29480
L44710 29540
L44670 29580
L44640 29600
" />
<path d="M45500 28000
L44000 28000
" />
</g>
<g style="fill:#008484; fill-opacity:0.0; 
stroke:#008484; stroke-width:60; stroke-opacity:1; 
stroke-linecap:round; stroke-linejoin:round;">
<path d="M46000 28180
L46000 27780
L46150 27780
L46190 27800
L46200 27820
L46220 27860
L46220 27910
L46200 27950
L46190 27970
L46150 27990
L46000 27990
" />
<path d="M46530 27970
L46590 27990
L46600 28010
L46620 28050
L46620 28100
L46600 28140
L46590 28160
L46550 28180
L46400 28180
L46400 27780
L46530 27780
L46570 27800
L46590 27820
L46600 27860
L46600 27900
L46590 27930
L46570 27950
L46530 27970
L46400 27970
" />
<path d="M46760 27780
L47000 27780
L46870 27930
L46930 27930
L46970 27950
L46990 27970
L47000 28010
L47000 28100
L46990 28140
L46970 28160
L46930 28180
L46810 28180
L46780 28160
L46760 28140
" />
<path d="M47290 28330
L47270 28310
L47230 28260
L47210 28220
L47190 28160
L47180 28070
L47180 27990
L47190 27900
L47210 27840
L47230 27800
L47270 27740
L47290 27720
" />
<path d="M47410 27780
L47670 28180
" />
<path d="M47670 27780
L47410 28180
" />
<path d="M47770 27780
L48000 27780
" />
<path d="M47880 28180
L47880 27780
" />
<path d="M48110 28070
L48300 28070
" />
<path d="M48070 28180
L48200 27780
L48330 28180
" />
<path d="M48660 28180
L48470 28180
L48470 27780
" />
<path d="M48990 28180
L48770 28180
" />
<path d="M48880 28180
L48880 27780
L48840 27840
L48800 27880
L48770 27900
" />
<path d="M49450 27760
L49110 28280
" />
<path d="M49810 28140
L49790 28160
L49740 28180
L49700 28180
L49640 28160
L49600 28120
L49590 28090
L49570 28010
L49570 27950
L49590 27880
L49600 27840
L49640 27800
L49700 27780
L49740 27780
L49790 27800
L49810 27820
" />
<path d="M50180 28180
L49990 28180
L49990 27780
" />
<path d="M50310 28180
L50310 27780
" />
<path d="M50530 28180
L50360 27950
" />
<path d="M50530 27780
L50310 28010
" />
<path d="M50710 28180
L50710 27780
" />
<path d="M51180 27760
L50840 28280
" />
<path d="M51390 27780
L51470 27780
L51510 27800
L51540 27840
L51560 27910
L51560 28050
L51540 28120
L51510 28160
L51470 28180
L51390 28180
L51350 28160
L51320 28120
L51300 28050
L51300 27910
L51320 27840
L51350 27800
L51390 27780
" />
<path d="M51960 28140
L51940 28160
L51890 28180
L51850 28180
L51790 28160
L51750 28120
L51740 28090
L51720 28010
L51720 27950
L51740 27880
L51750 27840
L51790 27800
L51850 27780
L51890 27780
L51940 27800
L51960 27820
" />
<path d="M52340 28180
L52120 28180
" />
<path d="M52230 28180
L52230 27780
L52190 27840
L52150 27880
L52120 27900
" />
<path d="M52650 27970
L52710 27990
L52720 28010
L52740 28050
L52740 28100
L52720 28140
L52710 28160
L52670 28180
L52520 28180
L52520 27780
L52650 27780
L52690 27800
L52710 27820
L52720 27860
L52720 27900
L52710 27930
L52690 27950
L52650 27970
L52520 27970
" />
<path d="M53200 27760
L52860 28280
" />
<path d="M53320 28070
L53510 28070
" />
<path d="M53280 28180
L53410 27780
L53540 28180
" />
<path d="M53680 28180
L53680 27780
L53770 27780
L53830 27800
L53870 27840
L53880 27880
L53900 27950
L53900 28010
L53880 28090
L53870 28120
L53830 28160
L53770 28180
L53680 28180
" />
<path d="M54300 28140
L54280 28160
L54230 28180
L54190 28180
L54130 28160
L54090 28120
L54080 28090
L54060 28010
L54060 27950
L54080 27880
L54090 27840
L54130 27800
L54190 27780
L54230 27780
L54280 27800
L54300 27820
" />
<path d="M54440 27780
L54680 27780
L54550 27930
L54610 27930
L54650 27950
L54670 27970
L54680 28010
L54680 28100
L54670 28140
L54650 28160
L54610 28180
L54490 28180
L54460 28160
L54440 28140
" />
<path d="M55140 27760
L54800 28280
" />
<path d="M55280 28180
L55280 27780
L55430 27780
L55470 27800
L55480 27820
L55500 27860
L55500 27910
L55480 27950
L55470 27970
L55430 27990
L55280 27990
" />
<path d="M55900 28140
L55880 28160
L55830 28180
L55790 28180
L55730 28160
L55690 28120
L55680 28090
L55660 28010
L55660 27950
L55680 27880
L55690 27840
L55730 27800
L55790 27780
L55830 27780
L55880 27800
L55900 27820
" />
<path d="M56080 28180
L56080 27780
" />
<path d="M56270 28180
L56270 27780
L56490 28180
L56490 27780
" />
<path d="M56630 27780
L56860 27780
" />
<path d="M56740 28180
L56740 27780
" />
<path d="M56950 27780
L57190 27780
L57060 27930
L57120 27930
L57160 27950
L57180 27970
L57190 28010
L57190 28100
L57180 28140
L57160 28160
L57120 28180
L57000 28180
L56970 28160
L56950 28140
" />
<path d="M57330 28330
L57350 28310
L57380 28260
L57400 28220
L57420 28160
L57440 28070
L57440 27990
L57420 27900
L57400 27840
L57380 27800
L57350 27740
L57330 27720
" />
</g>
<g style="fill:#840000; fill-opacity:0.0; 
stroke:#840000; stroke-width:60; stroke-opacity:1; 
stroke-linecap:round; stroke-linejoin:round;">
<path d="M44640 27520
L44660 27500
L44690 27480
L44790 27480
L44830 27500
L44850 27520
L44860 27560
L44860 27600
L44850 27650
L44620 27880
L44860 27880
" />
<path d="M45500 29000
L44000 29000
" />
</g>
<g style="fill:#008484; fill-opacity:0.0; 
stroke:#008484; stroke-width:60; stroke-opacity:1; 
stroke-linecap:round; stroke-linejoin:round;">
<path d="M46000 29180
L46000 28780
L46150 28780
L46190 28800
L46200 28820
L46220 28860
L46220 28910
L46200 28950
L46190 28970
L46150 28990
L46000 28990
" />
<path d="M46530 28970
L46590 28990
L46600 29010
L46620 29050
L46620 29100
L46600 29140
L46590 29160
L46550 29180
L46400 29180
L46400 28780
L46530 28780
L46570 28800
L46590 28820
L46600 28860
L46600 28900
L46590 28930
L46570 28950
L46530 28970
L46400 28970
" />
<path d="M46970 28910
L46970 29180
" />
<path d="M46870 28760
L46780 29050
L47020 29050
" />
<path d="M47290 29330
L47270 29310
L47230 29260
L47210 29220
L47190 29160
L47180 29070
L47180 28990
L47190 28900
L47210 28840
L47230 28800
L47270 28740
L47290 28720
" />
<path d="M47410 28780
L47670 29180
" />
<path d="M47670 28780
L47410 29180
" />
<path d="M47770 28780
L48000 28780
" />
<path d="M47880 29180
L47880 28780
" />
<path d="M48110 29070
L48300 29070
" />
<path d="M48070 29180
L48200 28780
L48330 29180
" />
<path d="M48660 29180
L48470 29180
L48470 28780
" />
<path d="M48770 28820
L48790 28800
L48820 28780
L48920 28780
L48960 28800
L48980 28820
L48990 28860
L48990 28900
L48980 28950
L48750 29180
L48990 29180
" />
<path d="M49450 28760
L49110 29280
" />
<path d="M49810 29140
L49790 29160
L49740 29180
L49700 29180
L49640 29160
L49600 29120
L49590 29090
L49570 29010
L49570 28950
L49590 28880
L49600 28840
L49640 28800
L49700 28780
L49740 28780
L49790 28800
L49810 28820
" />
<path d="M50180 29180
L49990 29180
L49990 28780
" />
<path d="M50310 29180
L50310 28780
" />
<path d="M50530 29180
L50360 28950
" />
<path d="M50530 28780
L50310 29010
" />
<path d="M50780 28780
L50860 28780
L50900 28800
L50930 28840
L50950 28910
L50950 29050
L50930 29120
L50900 29160
L50860 29180
L50780 29180
L50740 29160
L50710 29120
L50690 29050
L50690 28910
L50710 28840
L50740 28800
L50780 28780
" />
<path d="M51410 28760
L51070 29280
" />
<path d="M51620 28780
L51700 28780
L51740 28800
L51770 28840
L51790 28910
L51790 29050
L51770 29120
L51740 29160
L51700 29180
L51620 29180
L51580 29160
L51550 29120
L51530 29050
L51530 28910
L51550 28840
L51580 28800
L51620 28780
" />
<path d="M52190 29140
L52170 29160
L52120 29180
L52080 29180
L52020 29160
L51980 29120
L51970 29090
L51950 29010
L51950 28950
L51970 28880
L51980 28840
L52020 28800
L52080 28780
L52120 28780
L52170 28800
L52190 28820
" />
<path d="M52570 29180
L52350 29180
" />
<path d="M52460 29180
L52460 28780
L52420 28840
L52380 28880
L52350 28900
" />
<path d="M52880 28970
L52940 28990
L52950 29010
L52970 29050
L52970 29100
L52950 29140
L52940 29160
L52900 29180
L52750 29180
L52750 28780
L52880 28780
L52920 28800
L52940 28820
L52950 28860
L52950 28900
L52940 28930
L52920 28950
L52880 28970
L52750 28970
" />
<path d="M53430 28760
L53090 29280
" />
<path d="M53550 29070
L53740 29070
" />
<path d="M53510 29180
L53640 28780
L53770 29180
" />
<path d="M53910 29180
L53910 28780
L54000 28780
L54060 28800
L54100 28840
L54110 28880
L54130 28950
L54130 29010
L54110 29090
L54100 29120
L54060 29160
L54000 29180
L53910 29180
" />
<path d="M54530 29140
L54510 29160
L54460 29180
L54420 29180
L54360 29160
L54320 29120
L54310 29090
L54290 29010
L54290 28950
L54310 28880
L54320 28840
L54360 28800
L54420 28780
L54460 28780
L54510 28800
L54530 28820
" />
<path d="M54690 28820
L54710 28800
L54740 28780
L54840 28780
L54880 28800
L54900 28820
L54910 28860
L54910 28900
L54900 28950
L54670 29180
L54910 29180
" />
<path d="M55370 28760
L55030 29280
" />
<path d="M55510 29180
L55510 28780
L55660 28780
L55700 28800
L55710 28820
L55730 28860
L55730 28910
L55710 28950
L55700 28970
L55660 28990
L55510 28990
" />
<path d="M56130 29140
L56110 29160
L56060 29180
L56020 29180
L55960 29160
L55920 29120
L55910 29090
L55890 29010
L55890 28950
L55910 28880
L55920 28840
L55960 28800
L56020 28780
L56060 28780
L56110 28800
L56130 28820
" />
<path d="M56310 29180
L56310 28780
" />
<path d="M56500 29180
L56500 28780
L56720 29180
L56720 28780
" />
<path d="M56860 28780
L57090 28780
" />
<path d="M56970 29180
L56970 28780
" />
<path d="M57390 28910
L57390 29180
" />
<path d="M57290 28760
L57200 29050
L57440 29050
" />
<path d="M57560 29330
L57580 29310
L57610 29260
L57630 29220
L57650 29160
L57670 29070
L57670 28990
L57650 28900
L57630 28840
L57610 28800
L57580 28740
L57560 28720
" />
</g>
<g style="fill:#840000; fill-opacity:0.0; 
stroke:#840000; stroke-width:60; stroke-opacity:1; 
stroke-linecap:round; stroke-linejoin:round;">
<path d="M44620 28480
L44860 28480
L44730 28630
L44790 28630
L44830 28650
L44850 28670
L44860 28710
L44860 28800
L44850 28840
L44830 28860
L44790 28880
L44670 28880
L44640 28860
L44620 28840
" />
<path d="M69500 30000
L71000 30000
" />
</g>
<g style="fill:#008484; fill-opacity:0.0; 
stroke:#008484; stroke-width:60; stroke-opacity:1; 
stroke-linecap:round; stroke-linejoin:round;">
<path d="M68180 29800
L68150 29780
L68090 29780
L68030 29800
L67990 29840
L67980 29880
L67960 29950
L67960 30010
L67980 30090
L67990 30120
L68030 30160
L68090 30180
L68130 30180
L68180 30160
L68200 30140
L68200 30010
L68130 30010
" />
<path d="M68380 30180
L68380 29780
L68600 30180
L68600 29780
" />
<path d="M68800 30180
L68800 29780
L68890 29780
L68950 29800
L68990 29840
L69000 29880
L69020 29950
L69020 30010
L69000 30090
L68990 30120
L68950 30160
L68890 30180
L68800 30180
" />
</g>
<g style="fill:#840000; fill-opacity:0.0; 
stroke:#840000; stroke-width:60; stroke-opacity:1; 
stroke-linecap:round; stroke-linejoin:round;">
<path d="M70330 29610
L70330 29880
" />
<path d="M70230 29460
L70140 29750
L70380 29750
" />
<path d="M45500 25000
L44000 25000
" />
</g>
<g style="fill:#008484; fill-opacity:0.0; 
stroke:#008484; stroke-width:60; stroke-opacity:1; 
stroke-linecap:round; stroke-linejoin:round;">
<path d="M46000 25180
L46000 24780
L46150 24780
L46190 24800
L46200 24820
L46220 24860
L46220 24910
L46200 24950
L46190 24970
L46150 24990
L46000 24990
" />
<path d="M46530 24970
L46590 24990
L46600 25010
L46620 25050
L46620 25100
L46600 25140
L46590 25160
L46550 25180
L46400 25180
L46400 24780
L46530 24780
L46570 24800
L46590 24820
L46600 24860
L46600 24900
L46590 24930
L46570 24950
L46530 24970
L46400 24970
" />
<path d="M46870 24780
L46910 24780
L46950 24800
L46970 24820
L46990 24860
L47000 24930
L47000 25030
L46990 25100
L46970 25140
L46950 25160
L46910 25180
L46870 25180
L46830 25160
L46810 25140
L46800 25100
L46780 25030
L46780 24930
L46800 24860
L46810 24820
L46830 24800
L46870 24780
" />
<path d="M47290 25330
L47270 25310
L47230 25260
L47210 25220
L47190 25160
L47180 25070
L47180 24990
L47190 24900
L47210 24840
L47230 24800
L47270 24740
L47290 24720
" />
<path d="M47450 25180
L47450 24780
L47580 25070
L47710 24780
L47710 25180
" />
<path d="M47980 24780
L48060 24780
L48100 24800
L48130 24840
L48150 24910
L48150 25050
L48130 25120
L48100 25160
L48060 25180
L47980 25180
L47940 25160
L47910 25120
L47890 25050
L47890 24910
L47910 24840
L47940 24800
L47980 24780
" />
<path d="M48310 25160
L48360 25180
L48460 25180
L48500 25160
L48520 25140
L48530 25100
L48530 25070
L48520 25030
L48500 25010
L48460 24990
L48380 24970
L48340 24950
L48330 24930
L48310 24900
L48310 24860
L48330 24820
L48340 24800
L48380 24780
L48480 24780
L48530 24800
" />
<path d="M48710 25180
L48710 24780
" />
<path d="M49180 24760
L48840 25280
" />
<path d="M49320 25180
L49320 24780
L49410 24780
L49470 24800
L49510 24840
L49520 24880
L49540 24950
L49540 25010
L49520 25090
L49510 25120
L49470 25160
L49410 25180
L49320 25180
" />
<path d="M49720 25180
L49720 24780
" />
<path d="M50190 24760
L49850 25280
" />
<path d="M50310 25160
L50360 25180
L50460 25180
L50500 25160
L50520 25140
L50530 25100
L50530 25070
L50520 25030
L50500 25010
L50460 24990
L50380 24970
L50340 24950
L50330 24930
L50310 24900
L50310 24860
L50330 24820
L50340 24800
L50380 24780
L50480 24780
L50530 24800
" />
<path d="M50710 25180
L50710 24780
L50800 24780
L50860 24800
L50900 24840
L50910 24880
L50930 24950
L50930 25010
L50910 25090
L50900 25120
L50860 25160
L50800 25180
L50710 25180
" />
<path d="M51090 25070
L51280 25070
" />
<path d="M51050 25180
L51180 24780
L51310 25180
" />
<path d="M51730 24760
L51390 25280
" />
<path d="M51850 25070
L52040 25070
" />
<path d="M51810 25180
L51940 24780
L52070 25180
" />
<path d="M52210 25180
L52210 24780
" />
<path d="M52400 25180
L52400 24780
L52620 25180
L52620 24780
" />
<path d="M52890 24780
L52930 24780
L52970 24800
L52990 24820
L53010 24860
L53020 24930
L53020 25030
L53010 25100
L52990 25140
L52970 25160
L52930 25180
L52890 25180
L52850 25160
L52830 25140
L52820 25100
L52800 25030
L52800 24930
L52820 24860
L52830 24820
L52850 24800
L52890 24780
" />
<path d="M53480 24760
L53140 25280
" />
<path d="M53690 24780
L53770 24780
L53810 24800
L53840 24840
L53860 24910
L53860 25050
L53840 25120
L53810 25160
L53770 25180
L53690 25180
L53650 25160
L53620 25120
L53600 25050
L53600 24910
L53620 24840
L53650 24800
L53690 24780
" />
<path d="M54260 25140
L54240 25160
L54190 25180
L54150 25180
L54090 25160
L54050 25120
L54040 25090
L54020 25010
L54020 24950
L54040 24880
L54050 24840
L54090 24800
L54150 24780
L54190 24780
L54240 24800
L54260 24820
" />
<path d="M54510 24780
L54550 24780
L54590 24800
L54610 24820
L54630 24860
L54640 24930
L54640 25030
L54630 25100
L54610 25140
L54590 25160
L54550 25180
L54510 25180
L54470 25160
L54450 25140
L54440 25100
L54420 25030
L54420 24930
L54440 24860
L54450 24820
L54470 24800
L54510 24780
" />
<path d="M54800 25070
L54990 25070
" />
<path d="M54760 25180
L54890 24780
L55020 25180
" />
<path d="M55440 24760
L55100 25280
" />
<path d="M55650 24780
L55730 24780
L55770 24800
L55800 24840
L55820 24910
L55820 25050
L55800 25120
L55770 25160
L55730 25180
L55650 25180
L55610 25160
L55580 25120
L55560 25050
L55560 24910
L55580 24840
L55610 24800
L55650 24780
" />
<path d="M56220 25140
L56200 25160
L56150 25180
L56110 25180
L56050 25160
L56010 25120
L56000 25090
L55980 25010
L55980 24950
L56000 24880
L56010 24840
L56050 24800
L56110 24780
L56150 24780
L56200 24800
L56220 24820
" />
<path d="M56600 25180
L56380 25180
" />
<path d="M56490 25180
L56490 24780
L56450 24840
L56410 24880
L56380 24900
" />
<path d="M56760 25070
L56950 25070
" />
<path d="M56720 25180
L56850 24780
L56980 25180
" />
<path d="M57400 24760
L57060 25280
" />
<path d="M57520 25070
L57710 25070
" />
<path d="M57480 25180
L57610 24780
L57740 25180
" />
<path d="M58100 25180
L57970 24990
" />
<path d="M57880 25180
L57880 24780
L58030 24780
L58070 24800
L58080 24820
L58100 24860
L58100 24910
L58080 24950
L58070 24970
L58030 24990
L57880 24990
" />
<path d="M58280 24970
L58410 24970
" />
<path d="M58470 25180
L58280 25180
L58280 24780
L58470 24780
" />
<path d="M58770 24970
L58640 24970
" />
<path d="M58640 25180
L58640 24780
L58830 24780
" />
<path d="M59260 24760
L58920 25280
" />
<path d="M59400 25180
L59400 24780
L59550 24780
L59590 24800
L59600 24820
L59620 24860
L59620 24910
L59600 24950
L59590 24970
L59550 24990
L59400 24990
" />
<path d="M60020 25140
L60000 25160
L59950 25180
L59910 25180
L59850 25160
L59810 25120
L59800 25090
L59780 25010
L59780 24950
L59800 24880
L59810 24840
L59850 24800
L59910 24780
L59950 24780
L60000 24800
L60020 24820
" />
<path d="M60200 25180
L60200 24780
" />
<path d="M60390 25180
L60390 24780
L60610 25180
L60610 24780
" />
<path d="M60750 24780
L60980 24780
" />
<path d="M60860 25180
L60860 24780
" />
<path d="M61180 24780
L61220 24780
L61260 24800
L61280 24820
L61300 24860
L61310 24930
L61310 25030
L61300 25100
L61280 25140
L61260 25160
L61220 25180
L61180 25180
L61140 25160
L61120 25140
L61110 25100
L61090 25030
L61090 24930
L61110 24860
L61120 24820
L61140 24800
L61180 24780
" />
<path d="M61450 25330
L61470 25310
L61500 25260
L61520 25220
L61540 25160
L61560 25070
L61560 24990
L61540 24900
L61520 24840
L61500 24800
L61470 24740
L61450 24720
" />
</g>
<g style="fill:#840000; fill-opacity:0.0; 
stroke:#840000; stroke-width:60; stroke-opacity:1; 
stroke-linecap:round; stroke-linejoin:round;">
<path d="M44850 24480
L44660 24480
L44640 24670
L44660 24650
L44690 24630
L44790 24630
L44830 24650
L44850 24670
L44860 24710
L44860 24800
L44850 24840
L44830 24860
L44790 24880
L44690 24880
L44660 24860
L44640 24840
" />
<path d="M45500 26000
L44000 26000
" />
</g>
<g style="fill:#008484; fill-opacity:0.0; 
stroke:#008484; stroke-width:60; stroke-opacity:1; 
stroke-linecap:round; stroke-linejoin:round;">
<path d="M46000 26180
L46000 25780
L46150 25780
L46190 25800
L46200 25820
L46220 25860
L46220 25910
L46200 25950
L46190 25970
L46150 25990
L46000 25990
" />
<path d="M46530 25970
L46590 25990
L46600 26010
L46620 26050
L46620 26100
L46600 26140
L46590 26160
L46550 26180
L46400 26180
L46400 25780
L46530 25780
L46570 25800
L46590 25820
L46600 25860
L46600 25900
L46590 25930
L46570 25950
L46530 25970
L46400 25970
" />
<path d="M47000 26180
L46780 26180
" />
<path d="M46890 26180
L46890 25780
L46850 25840
L46810 25880
L46780 25900
" />
<path d="M47290 26330
L47270 26310
L47230 26260
L47210 26220
L47190 26160
L47180 26070
L47180 25990
L47190 25900
L47210 25840
L47230 25800
L47270 25740
L47290 25720
" />
<path d="M47450 26180
L47450 25780
L47580 26070
L47710 25780
L47710 26180
" />
<path d="M47910 26180
L47910 25780
" />
<path d="M48080 26160
L48130 26180
L48230 26180
L48270 26160
L48290 26140
L48300 26100
L48300 26070
L48290 26030
L48270 26010
L48230 25990
L48150 25970
L48110 25950
L48100 25930
L48080 25900
L48080 25860
L48100 25820
L48110 25800
L48150 25780
L48250 25780
L48300 25800
" />
<path d="M48550 25780
L48630 25780
L48670 25800
L48700 25840
L48720 25910
L48720 26050
L48700 26120
L48670 26160
L48630 26180
L48550 26180
L48510 26160
L48480 26120
L48460 26050
L48460 25910
L48480 25840
L48510 25800
L48550 25780
" />
<path d="M49180 25760
L48840 26280
" />
<path d="M49320 26180
L49320 25780
L49410 25780
L49470 25800
L49510 25840
L49520 25880
L49540 25950
L49540 26010
L49520 26090
L49510 26120
L49470 26160
L49410 26180
L49320 26180
" />
<path d="M49790 25780
L49870 25780
L49910 25800
L49940 25840
L49960 25910
L49960 26050
L49940 26120
L49910 26160
L49870 26180
L49790 26180
L49750 26160
L49720 26120
L49700 26050
L49700 25910
L49720 25840
L49750 25800
L49790 25780
" />
<path d="M50420 25760
L50080 26280
" />
<path d="M50540 26070
L50730 26070
" />
<path d="M50500 26180
L50630 25780
L50760 26180
" />
<path d="M50900 26180
L50900 25780
" />
<path d="M51090 26180
L51090 25780
L51310 26180
L51310 25780
" />
<path d="M51710 26180
L51490 26180
" />
<path d="M51600 26180
L51600 25780
L51560 25840
L51520 25880
L51490 25900
" />
<path d="M52170 25760
L51830 26280
" />
<path d="M52380 25780
L52460 25780
L52500 25800
L52530 25840
L52550 25910
L52550 26050
L52530 26120
L52500 26160
L52460 26180
L52380 26180
L52340 26160
L52310 26120
L52290 26050
L52290 25910
L52310 25840
L52340 25800
L52380 25780
" />
<path d="M52950 26140
L52930 26160
L52880 26180
L52840 26180
L52780 26160
L52740 26120
L52730 26090
L52710 26010
L52710 25950
L52730 25880
L52740 25840
L52780 25800
L52840 25780
L52880 25780
L52930 25800
L52950 25820
" />
<path d="M53200 25780
L53240 25780
L53280 25800
L53300 25820
L53320 25860
L53330 25930
L53330 26030
L53320 26100
L53300 26140
L53280 26160
L53240 26180
L53200 26180
L53160 26160
L53140 26140
L53130 26100
L53110 26030
L53110 25930
L53130 25860
L53140 25820
L53160 25800
L53200 25780
" />
<path d="M53640 25970
L53700 25990
L53710 26010
L53730 26050
L53730 26100
L53710 26140
L53700 26160
L53660 26180
L53510 26180
L53510 25780
L53640 25780
L53680 25800
L53700 25820
L53710 25860
L53710 25900
L53700 25930
L53680 25950
L53640 25970
L53510 25970
" />
<path d="M54190 25760
L53850 26280
" />
<path d="M54400 25780
L54480 25780
L54520 25800
L54550 25840
L54570 25910
L54570 26050
L54550 26120
L54520 26160
L54480 26180
L54400 26180
L54360 26160
L54330 26120
L54310 26050
L54310 25910
L54330 25840
L54360 25800
L54400 25780
" />
<path d="M54970 26140
L54950 26160
L54900 26180
L54860 26180
L54800 26160
L54760 26120
L54750 26090
L54730 26010
L54730 25950
L54750 25880
L54760 25840
L54800 25800
L54860 25780
L54900 25780
L54950 25800
L54970 25820
" />
<path d="M55350 26180
L55130 26180
" />
<path d="M55240 26180
L55240 25780
L55200 25840
L55160 25880
L55130 25900
" />
<path d="M55510 26070
L55700 26070
" />
<path d="M55470 26180
L55600 25780
L55730 26180
" />
<path d="M56150 25760
L55810 26280
" />
<path d="M56290 26180
L56290 25780
L56440 25780
L56480 25800
L56490 25820
L56510 25860
L56510 25910
L56490 25950
L56480 25970
L56440 25990
L56290 25990
" />
<path d="M56910 26140
L56890 26160
L56840 26180
L56800 26180
L56740 26160
L56700 26120
L56690 26090
L56670 26010
L56670 25950
L56690 25880
L56700 25840
L56740 25800
L56800 25780
L56840 25780
L56890 25800
L56910 25820
" />
<path d="M57090 26180
L57090 25780
" />
<path d="M57280 26180
L57280 25780
L57500 26180
L57500 25780
" />
<path d="M57640 25780
L57870 25780
" />
<path d="M57750 26180
L57750 25780
" />
<path d="M58200 26180
L57980 26180
" />
<path d="M58090 26180
L58090 25780
L58050 25840
L58010 25880
L57980 25900
" />
<path d="M58340 26330
L58360 26310
L58390 26260
L58410 26220
L58430 26160
L58450 26070
L58450 25990
L58430 25900
L58410 25840
L58390 25800
L58360 25740
L58340 25720
" />
</g>
<g style="fill:#840000; fill-opacity:0.0; 
stroke:#840000; stroke-width:60; stroke-opacity:1; 
stroke-linecap:round; stroke-linejoin:round;">
<path d="M44830 25480
L44750 25480
L44710 25500
L44690 25520
L44660 25580
L44640 25650
L44640 25800
L44660 25840
L44670 25860
L44710 25880
L44790 25880
L44830 25860
L44850 25840
L44860 25800
L44860 25710
L44850 25670
L44830 25650
L44790 25630
L44710 25630
L44670 25650
L44660 25670
L44640 25710
" />
<path d="M45500 27000
L44000 27000
" />
</g>
<g style="fill:#008484; fill-opacity:0.0; 
stroke:#008484; stroke-width:60; stroke-opacity:1; 
stroke-linecap:round; stroke-linejoin:round;">
<path d="M46000 27180
L46000 26780
L46150 26780
L46190 26800
L46200 26820
L46220 26860
L46220 26910
L46200 26950
L46190 26970
L46150 26990
L46000 26990
" />
<path d="M46530 26970
L46590 26990
L46600 27010
L46620 27050
L46620 27100
L46600 27140
L46590 27160
L46550 27180
L46400 27180
L46400 26780
L46530 26780
L46570 26800
L46590 26820
L46600 26860
L46600 26900
L46590 26930
L46570 26950
L46530 26970
L46400 26970
" />
<path d="M46780 26820
L46800 26800
L46830 26780
L46930 26780
L46970 26800
L46990 26820
L47000 26860
L47000 26900
L46990 26950
L46760 27180
L47000 27180
" />
<path d="M47290 27330
L47270 27310
L47230 27260
L47210 27220
L47190 27160
L47180 27070
L47180 26990
L47190 26900
L47210 26840
L47230 26800
L47270 26740
L47290 26720
" />
<path d="M47430 27160
L47480 27180
L47580 27180
L47620 27160
L47640 27140
L47650 27100
L47650 27070
L47640 27030
L47620 27010
L47580 26990
L47500 26970
L47460 26950
L47450 26930
L47430 26900
L47430 26860
L47450 26820
L47460 26800
L47500 26780
L47600 26780
L47650 26800
" />
<path d="M48050 27140
L48030 27160
L47980 27180
L47940 27180
L47880 27160
L47840 27120
L47830 27090
L47810 27010
L47810 26950
L47830 26880
L47840 26840
L47880 26800
L47940 26780
L47980 26780
L48030 26800
L48050 26820
" />
<path d="M48230 27180
L48230 26780
" />
<path d="M48450 27180
L48280 26950
" />
<path d="M48450 26780
L48230 27010
" />
<path d="M48910 26760
L48570 27280
" />
<path d="M49050 26780
L49050 27100
L49060 27140
L49080 27160
L49120 27180
L49200 27180
L49240 27160
L49250 27140
L49270 27100
L49270 26780
" />
<path d="M49450 27160
L49500 27180
L49600 27180
L49640 27160
L49660 27140
L49670 27100
L49670 27070
L49660 27030
L49640 27010
L49600 26990
L49520 26970
L49480 26950
L49470 26930
L49450 26900
L49450 26860
L49470 26820
L49480 26800
L49520 26780
L49620 26780
L49670 26800
" />
<path d="M50070 27140
L50050 27160
L50000 27180
L49960 27180
L49900 27160
L49860 27120
L49850 27090
L49830 27010
L49830 26950
L49850 26880
L49860 26840
L49900 26800
L49960 26780
L50000 26780
L50050 26800
L50070 26820
" />
<path d="M50250 27180
L50250 26780
" />
<path d="M50470 27180
L50300 26950
" />
<path d="M50470 26780
L50250 27010
" />
<path d="M50930 26760
L50590 27280
" />
<path d="M51050 27160
L51100 27180
L51200 27180
L51240 27160
L51260 27140
L51270 27100
L51270 27070
L51260 27030
L51240 27010
L51200 26990
L51120 26970
L51080 26950
L51070 26930
L51050 26900
L51050 26860
L51070 26820
L51080 26800
L51120 26780
L51220 26780
L51270 26800
" />
<path d="M51670 27140
L51650 27160
L51600 27180
L51560 27180
L51500 27160
L51460 27120
L51450 27090
L51430 27010
L51430 26950
L51450 26880
L51460 26840
L51500 26800
L51560 26780
L51600 26780
L51650 26800
L51670 26820
" />
<path d="M52040 27180
L51850 27180
L51850 26780
" />
<path d="M52450 26760
L52110 27280
" />
<path d="M52530 26780
L52760 26780
" />
<path d="M52640 27180
L52640 26780
" />
<path d="M52960 26780
L53000 26780
L53040 26800
L53060 26820
L53080 26860
L53090 26930
L53090 27030
L53080 27100
L53060 27140
L53040 27160
L53000 27180
L52960 27180
L52920 27160
L52900 27140
L52890 27100
L52870 27030
L52870 26930
L52890 26860
L52900 26820
L52920 26800
L52960 26780
" />
<path d="M53550 26760
L53210 27280
" />
<path d="M53690 27180
L53690 26780
" />
<path d="M53880 27180
L53880 26780
L54100 27180
L54100 26780
" />
<path d="M54240 26780
L54470 26780
" />
<path d="M54350 27180
L54350 26780
" />
<path d="M54670 26780
L54710 26780
L54750 26800
L54770 26820
L54790 26860
L54800 26930
L54800 27030
L54790 27100
L54770 27140
L54750 27160
L54710 27180
L54670 27180
L54630 27160
L54610 27140
L54600 27100
L54580 27030
L54580 26930
L54600 26860
L54610 26820
L54630 26800
L54670 26780
" />
<path d="M55260 26760
L54920 27280
" />
<path d="M55380 27070
L55570 27070
" />
<path d="M55340 27180
L55470 26780
L55600 27180
" />
<path d="M55740 27180
L55740 26780
L55830 26780
L55890 26800
L55930 26840
L55940 26880
L55960 26950
L55960 27010
L55940 27090
L55930 27120
L55890 27160
L55830 27180
L55740 27180
" />
<path d="M56360 27140
L56340 27160
L56290 27180
L56250 27180
L56190 27160
L56150 27120
L56140 27090
L56120 27010
L56120 26950
L56140 26880
L56150 26840
L56190 26800
L56250 26780
L56290 26780
L56340 26800
L56360 26820
" />
<path d="M56740 27180
L56520 27180
" />
<path d="M56630 27180
L56630 26780
L56590 26840
L56550 26880
L56520 26900
" />
<path d="M57200 26760
L56860 27280
" />
<path d="M57340 27180
L57340 26780
L57490 26780
L57530 26800
L57540 26820
L57560 26860
L57560 26910
L57540 26950
L57530 26970
L57490 26990
L57340 26990
" />
<path d="M57960 27140
L57940 27160
L57890 27180
L57850 27180
L57790 27160
L57750 27120
L57740 27090
L57720 27010
L57720 26950
L57740 26880
L57750 26840
L57790 26800
L57850 26780
L57890 26780
L57940 26800
L57960 26820
" />
<path d="M58140 27180
L58140 26780
" />
<path d="M58330 27180
L58330 26780
L58550 27180
L58550 26780
" />
<path d="M58690 26780
L58920 26780
" />
<path d="M58800 27180
L58800 26780
" />
<path d="M59030 26820
L59050 26800
L59080 26780
L59180 26780
L59220 26800
L59240 26820
L59250 26860
L59250 26900
L59240 26950
L59010 27180
L59250 27180
" />
<path d="M59390 27330
L59410 27310
L59440 27260
L59460 27220
L59480 27160
L59500 27070
L59500 26990
L59480 26900
L59460 26840
L59440 26800
L59410 26740
L59390 26720
" />
</g>
<g style="fill:#840000; fill-opacity:0.0; 
stroke:#840000; stroke-width:60; stroke-opacity:1; 
stroke-linecap:round; stroke-linejoin:round;">
<path d="M44620 26480
L44880 26480
L44710 26880
" />
<path d="M69500 25000
L71000 25000
" />
</g>
<g style="fill:#008484; fill-opacity:0.0; 
stroke:#008484; stroke-width:60; stroke-opacity:1; 
stroke-linecap:round; stroke-linejoin:round;">
<path d="M68000 24780
L68130 25180
L68260 24780
" />
<path d="M68620 25140
L68600 25160
L68550 25180
L68510 25180
L68450 25160
L68410 25120
L68400 25090
L68380 25010
L68380 24950
L68400 24880
L68410 24840
L68450 24800
L68510 24780
L68550 24780
L68600 24800
L68620 24820
" />
<path d="M69020 25140
L69000 25160
L68950 25180
L68910 25180
L68850 25160
L68810 25120
L68800 25090
L68780 25010
L68780 24950
L68800 24880
L68810 24840
L68850 24800
L68910 24780
L68950 24780
L69000 24800
L69020 24820
" />
</g>
<g style="fill:#840000; fill-opacity:0.0; 
stroke:#840000; stroke-width:60; stroke-opacity:1; 
stroke-linecap:round; stroke-linejoin:round;">
<path d="M70210 24650
L70170 24630
L70160 24610
L70140 24580
L70140 24560
L70160 24520
L70170 24500
L70210 24480
L70290 24480
L70330 24500
L70350 24520
L70360 24560
L70360 24580
L70350 24610
L70330 24630
L70290 24650
L70210 24650
L70170 24670
L70160 24690
L70140 24730
L70140 24800
L70160 24840
L70170 24860
L70210 24880
L70290 24880
L70330 24860
L70350 24840
L70360 24800
L70360 24730
L70350 24690
L70330 24670
L70290 24650
" />
</g>
<g style="fill:#008484; fill-opacity:0.0; 
stroke:#008484; stroke-width:60; stroke-opacity:1; 
stroke-linecap:round; stroke-linejoin:round;">
<path d="M45620 23260
L45620 23660
L45640 23710
L45670 23730
L45710 23760
L45810 23760
L45860 23730
L45880 23710
L45900 23660
L45900 23260
" />
<path d="M46400 23760
L46120 23760
" />
<path d="M46260 23760
L46260 23260
L46210 23330
L46160 23380
L46120 23400
" />
<path d="M64630 31610
L64860 31610
" />
<path d="M64580 31760
L64740 31260
L64910 31760
" />
<path d="M65010 31260
L65290 31260
" />
<path d="M65150 31760
L65150 31260
" />
<path d="M65390 31260
L65670 31260
" />
<path d="M65530 31760
L65530 31260
" />
<path d="M65840 31760
L65840 31260
" />
<path d="M66080 31760
L66080 31260
L66360 31760
L66360 31260
" />
<path d="M66690 31520
L66690 31760
" />
<path d="M66530 31260
L66690 31520
L66860 31260
" />
<path d="M67240 31420
L67240 31760
" />
<path d="M67120 31230
L67010 31590
L67310 31590
" />
<path d="M67750 31260
L67510 31260
L67490 31490
L67510 31470
L67560 31450
L67680 31450
L67720 31470
L67750 31490
L67770 31540
L67770 31660
L67750 31710
L67720 31730
L67680 31760
L67560 31760
L67510 31730
L67490 31710
" />
<path d="M67990 31570
L68370 31570
" />
<path d="M68590 31300
L68610 31280
L68660 31260
L68780 31260
L68820 31280
L68850 31300
L68870 31350
L68870 31400
L68850 31470
L68560 31760
L68870 31760
" />
<path d="M69180 31260
L69230 31260
L69280 31280
L69300 31300
L69330 31350
L69350 31450
L69350 31570
L69330 31660
L69300 31710
L69280 31730
L69230 31760
L69180 31760
L69140 31730
L69110 31710
L69090 31660
L69070 31570
L69070 31450
L69090 31350
L69110 31300
L69140 31280
L69180 31260
" />
<path d="M69570 31760
L69570 31260
L69760 31260
L69810 31280
L69830 31300
L69850 31350
L69850 31420
L69830 31470
L69810 31490
L69760 31520
L69570 31520
" />
<path d="M70070 31260
L70070 31660
L70090 31710
L70120 31730
L70160 31760
L70260 31760
L70310 31730
L70330 31710
L70350 31660
L70350 31260
" />
</g>
<g style="fill:#008484; fill-opacity:0.0; 
stroke:#008484; stroke-width:0; stroke-opacity:1; 
stroke-linecap:round; stroke-linejoin:round;">
</g>
<g style="fill:#840000; fill-opacity:0.0; 
stroke:#840000; stroke-width:0; stroke-opacity:1; 
stroke-linecap:round; stroke-linejoin:round;">
</g>
<g style="fill:#840000; fill-opacity:0.0; 
stroke:#840000; stroke-width:60; stroke-opacity:1; 
stroke-linecap:round; stroke-linejoin:round;">
<circle cx="41500" cy="27250" r="250" /> 
<polyline fill="none;"
points="41500,28000
41500,27500
" /> 
</g>
<g style="fill:#008484; fill-opacity:0.0; 
stroke:#008484; stroke-width:60; stroke-opacity:1; 
stroke-linecap:round; stroke-linejoin:round;">
<path d="M40840 26260
L41000 26760
L41170 26260
" />
<path d="M41620 26710
L41600 26730
L41530 26760
L41480 26760
L41410 26730
L41360 26680
L41340 26640
L41320 26540
L41320 26470
L41340 26380
L41360 26330
L41410 26280
L41480 26260
L41530 26260
L41600 26280
L41620 26300
" />
<path d="M42120 26710
L42100 26730
L42030 26760
L41980 26760
L41910 26730
L41860 26680
L41840 26640
L41820 26540
L41820 26470
L41840 26380
L41860 26330
L41910 26280
L41980 26260
L42030 26260
L42100 26280
L42120 26300
" />
</g>
<g style="fill:#008484; fill-opacity:0.0; 
stroke:#008484; stroke-width:0; stroke-opacity:1; 
stroke-linecap:round; stroke-linejoin:round;">
</g>
<g style="fill:#840000; fill-opacity:0.0; 
stroke:#840000; stroke-width:0; stroke-opacity:1; 
stroke-linecap:round; stroke-linejoin:round;">
</g>
<g style="fill:#840000; fill-opacity:0.0; 
stroke:#840000; stroke-width:60; stroke-opacity:1; 
stroke-linecap:round; stroke-linejoin:round;">
<polyline fill="none;"
points="41500,29000
41500,29500
42000,29500
41500,30000
41000,29500
41500,29500
" /> 
</g>
<g style="fill:#008484; fill-opacity:0.0; 
stroke:#008484; stroke-width:60; stroke-opacity:1; 
stroke-linecap:round; stroke-linejoin:round;">
<path d="M41120 30280
L41070 30260
L41000 30260
L40930 30280
L40880 30330
L40860 30380
L40840 30470
L40840 30540
L40860 30640
L40880 30680
L40930 30730
L41000 30760
L41050 30760
L41120 30730
L41140 30710
L41140 30540
L41050 30540
" />
<path d="M41360 30760
L41360 30260
L41640 30760
L41640 30260
" />
<path d="M41880 30760
L41880 30260
L42000 30260
L42070 30280
L42120 30330
L42140 30380
L42160 30470
L42160 30540
L42140 30640
L42120 30680
L42070 30730
L42000 30760
L41880 30760
" />
</g>
<g style="fill:#008484; fill-opacity:0.0; 
stroke:#008484; stroke-width:0; stroke-opacity:1; 
stroke-linecap:round; stroke-linejoin:round;">
</g>
<g style="fill:#840000; fill-opacity:0.0; 
stroke:#840000; stroke-width:0; stroke-opacity:1; 
stroke-linecap:round; stroke-linejoin:round;">
</g>
<g style="fill:#840000; fill-opacity:0.0; 
stroke:#840000; stroke-width:60; stroke-opacity:1; 
stroke-linecap:round; stroke-linejoin:round;">
<circle cx="73000" cy="24250" r="250" /> 
<polyline fill="none;"
points="73000,25000
73000,24500
" /> 
</g>
<g style="fill:#008484; fill-opacity:0.0; 
stroke:#008484; stroke-width:60; stroke-opacity:1; 
stroke-linecap:round; stroke-linejoin:round;">
<path d="M72340 23260
L72500 23760
L72670 23260
" />
<path d="M73120 23710
L73100 23730
L73030 23760
L72980 23760
L72910 23730
L72860 23680
L72840 23640
L72820 23540
L72820 23470
L72840 23380
L72860 23330
L72910 23280
L72980 23260
L73030 23260
L73100 23280
L73120 23300
" />
<path d="M73620 23710
L73600 23730
L73530 23760
L73480 23760
L73410 23730
L73360 23680
L73340 23640
L73320 23540
L73320 23470
L73340 23380
L73360 23330
L73410 23280
L73480 23260
L73530 23260
L73600 23280
L73620 23300
" />
</g>
<g style="fill:#008484; fill-opacity:0.0; 
stroke:#008484; stroke-width:0; stroke-opacity:1; 
stroke-linecap:round; stroke-linejoin:round;">
</g>
<g style="fill:#840000; fill-opacity:0.0; 
stroke:#840000; stroke-width:0; stroke-opacity:1; 
stroke-linecap:round; stroke-linejoin:round;">
</g>
<g style="fill:#840000; fill-opacity:0.0; 
stroke:#840000; stroke-width:60; stroke-opacity:1; 
stroke-linecap:round; stroke-linejoin:round;">
<polyline fill="none;"
points="73000,30000
73000,30500
73500,30500
73000,31000
72500,30500
73000,30500
" /> 
</g>
<g style="fill:#008484; fill-opacity:0.0; 
stroke:#008484; stroke-width:60; stroke-opacity:1; 
stroke-linecap:round; stroke-linejoin:round;">
<path d="M72620 31280
L72570 31260
L72500 31260
L72430 31280
L72380 31330
L72360 31380
L72340 31470
L72340 31540
L72360 31640
L72380 31680
L72430 31730
L72500 31760
L72550 31760
L72620 31730
L72640 31710
L72640 31540
L72550 31540
" />
<path d="M72860 31760
L72860 31260
L73140 31760
L73140 31260
" />
<path d="M73380 31760
L73380 31260
L73500 31260
L73570 31280
L73620 31330
L73640 31380
L73660 31470
L73660 31540
L73640 31640
L73620 31680
L73570 31730
L73500 31760
L73380 31760
" />
</g>
<g style="fill:#008484; fill-opacity:0.0; 
stroke:#008484; stroke-width:0; stroke-opacity:1; 
stroke-linecap:round; stroke-linejoin:round;">
</g>
<g style="fill:#840000; fill-opacity:0.0; 
stroke:#840000; stroke-width:0; stroke-opacity:1; 
stroke-linecap:round; stroke-linejoin:round;">
</g>
<g style="fill:#840000; fill-opacity:0.0; 
stroke:#840000; stroke-width:200; stroke-opacity:1; 
stroke-linecap:round; stroke-linejoin:round;">
<polyline fill="none;"
points="72200,27800
73800,27800
" /> 
<polyline fill="none;"
points="72200,27200
73800,27200
" /> 
</g>
<g style="fill:#840000; fill-opacity:0.0; 
stroke:#840000; stroke-width:60; stroke-opacity:1; 
stroke-linecap:round; stroke-linejoin:round;">
<path d="M73000 27100
L73000 26000
" />
<path d="M73000 27900
L73000 29000
" />
</g>
<g style="fill:#008484; fill-opacity:0.0; 
stroke:#008484; stroke-width:60; stroke-opacity:1; 
stroke-linecap:round; stroke-linejoin:round;">
<path d="M73650 26710
L73630 26730
L73560 26760
L73510 26760
L73440 26730
L73390 26680
L73370 26640
L73350 26540
L73350 26470
L73370 26380
L73390 26330
L73440 26280
L73510 26260
L73560 26260
L73630 26280
L73650 26300
" />
<path d="M74130 26760
L73850 26760
" />
<path d="M73990 26760
L73990 26260
L73940 26330
L73890 26380
L73850 26400
" />
<path d="M73630 28760
L73350 28760
" />
<path d="M73490 28760
L73490 28260
L73440 28330
L73390 28380
L73350 28400
" />
<path d="M74060 28420
L74060 28760
" />
<path d="M73850 28420
L73850 28680
L73870 28730
L73920 28760
L73990 28760
L74040 28730
L74060 28710
" />
<path d="M74470 28490
L74300 28490
" />
<path d="M74300 28760
L74300 28260
L74540 28260
" />
</g>
<g style="fill:#008484; fill-opacity:0.0; 
stroke:#008484; stroke-width:0; stroke-opacity:1; 
stroke-linecap:round; stroke-linejoin:round;">
</g>
<g style="fill:#840000; fill-opacity:0.0; 
stroke:#840000; stroke-width:0; stroke-opacity:1; 
stroke-linecap:round; stroke-linejoin:round;">
</g>
<g style="fill:#840000; fill-opacity:0.0; 
stroke:#840000; stroke-width:100; stroke-opacity:1; 
stroke-linecap:round; stroke-linejoin:round;">
<circle cx="51650" cy="43500" r="1110" /> 
</g>
<g style="fill:#840000; fill-opacity:1.0; 
stroke:#840000; stroke-width:60; stroke-opacity:1; 
stroke-linecap:round; stroke-linejoin:round;">
<circle cx="52000" cy="44200" r="110" /> 
<circle cx="52000" cy="42800" r="110" /> 
</g>
<g style="fill:#840000; fill-opacity:0.0; 
stroke:#840000; stroke-width:60; stroke-opacity:1; 
stroke-linecap:round; stroke-linejoin:round;">
<polyline fill="none;"
points="51300,44200
52000,44200
" /> 
</g>
<g style="fill:#840000; fill-opacity:0.0; 
stroke:#840000; stroke-width:100; stroke-opacity:1; 
stroke-linecap:round; stroke-linejoin:round;">
<polyline fill="none;"
points="51300,44000
51300,44400
" /> 
</g>
<g style="fill:#840000; fill-opacity:0.0; 
stroke:#840000; stroke-width:60; stroke-opacity:1; 
stroke-linecap:round; stroke-linejoin:round;">
<polyline fill="none;"
points="51300,43500
52000,43500
" /> 
</g>
<g style="fill:#840000; fill-opacity:0.0; 
stroke:#840000; stroke-width:100; stroke-opacity:1; 
stroke-linecap:round; stroke-linejoin:round;">
<polyline fill="none;"
points="51300,43300
51300,43700
" /> 
</g>
<g style="fill:#840000; fill-opacity:0.0; 
stroke:#840000; stroke-width:60; stroke-opacity:1; 
stroke-linecap:round; stroke-linejoin:round;">
<polyline fill="none;"
points="51300,42800
52000,42800
" /> 
</g>
<g style="fill:#840000; fill-opacity:0.0; 
stroke:#840000; stroke-width:100; stroke-opacity:1; 
stroke-linecap:round; stroke-linejoin:round;">
<polyline fill="none;"
points="51300,42600
51300,43000
" /> 
</g>
<g style="fill:#840000; fill-opacity:0.0; 
stroke:#840000; stroke-width:60; stroke-opacity:1; 
stroke-linecap:round; stroke-linejoin:round;">
<polyline fill="none;"
points="52000,44200
52000,44500
" /> 
<polyline fill="none;"
points="52000,44200
52000,43500
" /> 
<polyline fill="none;"
points="52000,42500
52000,42800
" /> 
</g>
<g style="fill:#840000; fill-opacity:0.0; 
stroke:#840000; stroke-width:100; stroke-opacity:1; 
stroke-linecap:round; stroke-linejoin:round;">
<polyline fill="none;"
points="51100,42750
51100,44250
51100,44250
" /> 
</g>
<g style="fill:#840000; fill-opacity:1.0; 
stroke:#840000; stroke-width:60; stroke-opacity:1; 
stroke-linecap:round; stroke-linejoin:round;">
<polyline style="fill-rule:evenodd;"
points="51400,43500
51800,43350
51800,43650
51400,43500
" /> 
</g>
<g style="fill:#840000; fill-opacity:0.0; 
stroke:#840000; stroke-width:60; stroke-opacity:1; 
stroke-linecap:round; stroke-linejoin:round;">
<polyline fill="none;"
points="52000,44200
52300,44200
52300,42800
52000,42800
" /> 
<polyline fill="none;"
points="52100,43300
52150,43350
52450,43350
52500,43400
" /> 
<polyline fill="none;"
points="52300,43350
52150,43600
52450,43600
52300,43350
" /> 
<path d="M51100 43500
L49000 43500
" />
<path d="M50190 44080
L49910 44080
" />
<path d="M50050 44080
L50050 43580
L50000 43650
L49950 43700
L49910 43720
" />
<path d="M52000 44500
L52000 45500
" />
<path d="M52120 45140
L52100 45120
L52080 45070
L52080 44950
L52100 44910
L52120 44880
L52170 44860
L52220 44860
L52290 44880
L52580 45170
L52580 44860
" />
<path d="M52000 42500
L52000 41500
" />
<path d="M52080 42170
L52080 41860
L52270 42030
L52270 41950
L52290 41910
L52310 41880
L52360 41860
L52480 41860
L52530 41880
L52550 41910
L52580 41950
L52580 42100
L52550 42140
L52530 42170
" />
</g>
<g style="fill:#008484; fill-opacity:0.0; 
stroke:#008484; stroke-width:60; stroke-opacity:1; 
stroke-linecap:round; stroke-linejoin:round;">
<path d="M53450 43300
L53400 43280
L53360 43230
L53290 43160
L53240 43140
L53190 43140
" />
<path d="M53210 43260
L53170 43230
L53120 43180
L53100 43090
L53100 42920
L53120 42830
L53170 42780
L53210 42760
L53310 42760
L53360 42780
L53400 42830
L53430 42920
L53430 43090
L53400 43180
L53360 43230
L53310 43260
L53210 43260
" />
<path d="M53900 43260
L53620 43260
" />
<path d="M53760 43260
L53760 42760
L53710 42830
L53660 42880
L53620 42900
" />
<path d="M53450 44300
L53400 44280
L53360 44230
L53290 44160
L53240 44140
L53190 44140
" />
<path d="M53210 44260
L53170 44230
L53120 44180
L53100 44090
L53100 43920
L53120 43830
L53170 43780
L53210 43760
L53310 43760
L53360 43780
L53400 43830
L53430 43920
L53430 44090
L53400 44180
L53360 44230
L53310 44260
L53210 44260
" />
<path d="M53520 44300
L53900 44300
" />
<path d="M54020 44260
L54020 43760
L54300 44260
L54300 43760
" />
<path d="M54540 44260
L54540 43760
L54710 44110
L54870 43760
L54870 44260
" />
<path d="M55200 43760
L55300 43760
L55350 43780
L55390 43830
L55420 43920
L55420 44090
L55390 44180
L55350 44230
L55300 44260
L55200 44260
L55160 44230
L55110 44180
L55090 44090
L55090 43920
L55110 43830
L55160 43780
L55200 43760
" />
<path d="M55610 44230
L55680 44260
L55800 44260
L55840 44230
L55870 44210
L55890 44160
L55890 44110
L55870 44070
L55840 44040
L55800 44020
L55700 43990
L55650 43970
L55630 43950
L55610 43900
L55610 43850
L55630 43800
L55650 43780
L55700 43760
L55820 43760
L55890 43780
" />
<path d="M55990 44300
L56370 44300
" />
<path d="M56750 43780
L56700 43760
L56630 43760
L56560 43780
L56510 43830
L56490 43880
L56470 43970
L56470 44040
L56490 44140
L56510 44180
L56560 44230
L56630 44260
L56680 44260
L56750 44230
L56770 44210
L56770 44040
L56680 44040
" />
<path d="M56970 44230
L57040 44260
L57160 44260
L57200 44230
L57230 44210
L57250 44160
L57250 44110
L57230 44070
L57200 44040
L57160 44020
L57060 43990
L57010 43970
L56990 43950
L56970 43900
L56970 43850
L56990 43800
L57010 43780
L57060 43760
L57180 43760
L57250 43780
" />
<path d="M57470 44260
L57470 43760
L57590 43760
L57660 43780
L57710 43830
L57730 43880
L57750 43970
L57750 44040
L57730 44140
L57710 44180
L57660 44230
L57590 44260
L57470 44260
" />
</g>
<g style="fill:#008484; fill-opacity:0.0; 
stroke:#008484; stroke-width:0; stroke-opacity:1; 
stroke-linecap:round; stroke-linejoin:round;">
</g>
<g style="fill:#840000; fill-opacity:0.0; 
stroke:#840000; stroke-width:0; stroke-opacity:1; 
stroke-linecap:round; stroke-linejoin:round;">
</g>
<g style="fill:#840000; fill-opacity:0.0; 
stroke:#840000; stroke-width:60; stroke-opacity:1; 
stroke-linecap:round; stroke-linejoin:round;">
<circle cx="52000" cy="33750" r="250" /> 
<polyline fill="none;"
points="52000,34500
52000,34000
" /> 
</g>
<g style="fill:#008484; fill-opacity:0.0; 
stroke:#008484; stroke-width:60; stroke-opacity:1; 
stroke-linecap:round; stroke-linejoin:round;">
<path d="M51340 32760
L51500 33260
L51670 32760
" />
<path d="M52120 33210
L52100 33230
L52030 33260
L51980 33260
L51910 33230
L51860 33180
L51840 33140
L51820 33040
L51820 32970
L51840 32880
L51860 32830
L51910 32780
L51980 32760
L52030 32760
L52100 32780
L52120 32800
" />
<path d="M52620 33210
L52600 33230
L52530 33260
L52480 33260
L52410 33230
L52360 33180
L52340 33140
L52320 33040
L52320 32970
L52340 32880
L52360 32830
L52410 32780
L52480 32760
L52530 32760
L52600 32780
L52620 32800
" />
</g>
<g style="fill:#008484; fill-opacity:0.0; 
stroke:#008484; stroke-width:0; stroke-opacity:1; 
stroke-linecap:round; stroke-linejoin:round;">
</g>
<g style="fill:#840000; fill-opacity:0.0; 
stroke:#840000; stroke-width:0; stroke-opacity:1; 
stroke-linecap:round; stroke-linejoin:round;">
</g>
<g style="fill:#840000; fill-opacity:0.0; 
stroke:#840000; stroke-width:60; stroke-opacity:1; 
stroke-linecap:round; stroke-linejoin:round;">
<path d="M52000.4 39500 A250 250 0.0 0 0 52000.4 39000 " />
<path d="M52000.4 39000 A250 250 0.0 0 0 52000.4 38500 " />
<path d="M52000.4 38500 A250 250 0.0 0 0 52000.4 38000 " />
<path d="M52000.4 38000 A250 250 0.0 0 0 52000.4 37500 " />
<path d="M52000 37500
L52000 37000
" />
<path d="M52000 39500
L52000 40000
" />
</g>
<g style="fill:#008484; fill-opacity:0.0; 
stroke:#008484; stroke-width:60; stroke-opacity:1; 
stroke-linecap:round; stroke-linejoin:round;">
<path d="M51760 38580
L51760 38820
L51260 38820
" />
<path d="M51760 38160
L51760 38440
" />
<path d="M51760 38300
L51260 38300
L51330 38350
L51380 38400
L51400 38440
" />
<path d="M52510 39900
L52510 39850
L52530 39800
L52550 39780
L52600 39750
L52700 39730
L52820 39730
L52910 39750
L52960 39780
L52980 39800
L53010 39850
L53010 39900
L52980 39940
L52960 39970
L52910 39990
L52820 40010
L52700 40010
L52600 39990
L52550 39970
L52530 39940
L52510 39900
" />
<path d="M52960 39510
L52980 39490
L53010 39510
L52980 39530
L52960 39510
L53010 39510
" />
<path d="M53010 39010
L53010 39290
" />
<path d="M53010 39150
L52510 39150
L52580 39200
L52630 39250
L52650 39290
" />
<path d="M52510 38550
L52510 38790
L52740 38810
L52720 38790
L52700 38740
L52700 38620
L52720 38580
L52740 38550
L52790 38530
L52910 38530
L52960 38550
L52980 38580
L53010 38620
L53010 38740
L52980 38790
L52960 38810
" />
<path d="M53010 37930
L52670 37930
" />
<path d="M52720 37930
L52700 37910
L52670 37860
L52670 37790
L52700 37740
L52740 37720
L53010 37720
" />
<path d="M52740 37720
L52700 37690
L52670 37650
L52670 37570
L52700 37530
L52740 37500
L53010 37500
" />
<path d="M53010 37260
L52510 37260
" />
<path d="M52740 37260
L52740 36980
" />
<path d="M53010 36980
L52510 36980
" />
</g>
<g style="fill:#008484; fill-opacity:0.0; 
stroke:#008484; stroke-width:0; stroke-opacity:1; 
stroke-linecap:round; stroke-linejoin:round;">
</g>
<g style="fill:#840000; fill-opacity:0.0; 
stroke:#840000; stroke-width:0; stroke-opacity:1; 
stroke-linecap:round; stroke-linejoin:round;">
</g>
<g style="fill:#840000; fill-opacity:0.0; 
stroke:#840000; stroke-width:60; stroke-opacity:1; 
stroke-linecap:round; stroke-linejoin:round;">
<polyline fill="none;"
points="52000,47500
52000,48000
52500,48000
52000,48500
51500,48000
52000,48000
" /> 
</g>
<g style="fill:#008484; fill-opacity:0.0; 
stroke:#008484; stroke-width:60; stroke-opacity:1; 
stroke-linecap:round; stroke-linejoin:round;">
<path d="M51620 48780
L51570 48760
L51500 48760
L51430 48780
L51380 48830
L51360 48880
L51340 48970
L51340 49040
L51360 49140
L51380 49180
L51430 49230
L51500 49260
L51550 49260
L51620 49230
L51640 49210
L51640 49040
L51550 49040
" />
<path d="M51860 49260
L51860 48760
L52140 49260
L52140 48760
" />
<path d="M52380 49260
L52380 48760
L52500 48760
L52570 48780
L52620 48830
L52640 48880
L52660 48970
L52660 49040
L52640 49140
L52620 49180
L52570 49230
L52500 49260
L52380 49260
" />
</g>
<g style="fill:#008484; fill-opacity:0.0; 
stroke:#008484; stroke-width:0; stroke-opacity:1; 
stroke-linecap:round; stroke-linejoin:round;">
</g>
<g style="fill:#840000; fill-opacity:0.0; 
stroke:#840000; stroke-width:0; stroke-opacity:1; 
stroke-linecap:round; stroke-linejoin:round;">
</g>
<g style="fill:#840000; fill-opacity:0.0; 
stroke:#840000; stroke-width:80; stroke-opacity:1; 
stroke-linecap:round; stroke-linejoin:round;">
<polyline fill="none;"
points="55500,38000
56500,38000
" /> 
</g>
<g style="fill:#840000; fill-opacity:0.0; 
stroke:#840000; stroke-width:60; stroke-opacity:1; 
stroke-linecap:round; stroke-linejoin:round;">
<polyline fill="none;"
points="56000,38000
56000,39000
" /> 
</g>
<g style="fill:#840000; fill-opacity:0.0; 
stroke:#840000; stroke-width:80; stroke-opacity:1; 
stroke-linecap:round; stroke-linejoin:round;">
<polyline fill="none;"
points="55500,39000
56500,39000
56000,38000
55500,39000
" /> 
</g>
<g style="fill:#840000; fill-opacity:0.0; 
stroke:#840000; stroke-width:60; stroke-opacity:1; 
stroke-linecap:round; stroke-linejoin:round;">
<polyline fill="none;"
points="55700,37300
55100,36700
55100,37000
55100,36700
55400,36700
" /> 
<polyline fill="none;"
points="55700,37800
55100,37200
55100,37500
55100,37200
55400,37200
" /> 
<path d="M56000 38000
L56000 37000
" />
<path d="M55880 37360
L55880 37640
" />
<path d="M55880 37500
L55380 37500
L55450 37550
L55500 37600
L55520 37640
" />
<path d="M56000 39000
L56000 40000
" />
<path d="M55420 39640
L55400 39620
L55380 39570
L55380 39450
L55400 39410
L55420 39380
L55470 39360
L55520 39360
L55590 39380
L55880 39670
L55880 39360
" />
</g>
<g style="fill:#008484; fill-opacity:0.0; 
stroke:#008484; stroke-width:60; stroke-opacity:1; 
stroke-linecap:round; stroke-linejoin:round;">
<path d="M57190 38870
L56690 38870
L56690 38750
L56710 38680
L56760 38630
L56810 38610
L56900 38590
L56970 38590
L57070 38610
L57110 38630
L57160 38680
L57190 38750
L57190 38870
" />
<path d="M57190 38110
L57190 38390
" />
<path d="M57190 38250
L56690 38250
L56760 38300
L56810 38350
L56830 38390
" />
<path d="M55190 38810
L55190 39050
L54690 39050
" />
<path d="M54920 38650
L54920 38480
" />
<path d="M55190 38410
L55190 38650
L54690 38650
L54690 38410
" />
<path d="M55190 38200
L54690 38200
L54690 38080
L54710 38010
L54760 37960
L54810 37940
L54900 37920
L54970 37920
L55070 37940
L55110 37960
L55160 38010
L55190 38080
L55190 38200
" />
</g>
<g style="fill:#0000C2; fill-opacity:0.0; 
stroke:#0000C2; stroke-width:60; stroke-opacity:1; 
stroke-linecap:round; stroke-linejoin:round;">
<path d="M35460 36170
L35110 36170
" />
<path d="M35290 36170
L35290 35570
L35230 35660
L35170 35710
L35110 35740
" />
<path d="M35710 35940
L36170 35940
" />
<path d="M36710 35770
L36710 36170
" />
<path d="M36570 35540
L36420 35970
L36800 35970
" />
<path d="M37740 35770
L37740 36170
" />
<path d="M37480 35770
L37480 36090
L37510 36140
L37570 36170
L37650 36170
L37710 36140
L37740 36110
" />
<path d="M37990 36140
L38050 36170
L38170 36170
L38220 36140
L38250 36090
L38250 36060
L38220 36000
L38170 35970
L38080 35970
L38020 35940
L37990 35890
L37990 35860
L38020 35800
L38080 35770
L38170 35770
L38220 35800
" />
<path d="M38970 35770
L38970 36370
" />
<path d="M38970 35800
L39030 35770
L39140 35770
L39200 35800
L39230 35830
L39260 35890
L39260 36060
L39230 36110
L39200 36140
L39140 36170
L39030 36170
L38970 36140
" />
<path d="M39770 35770
L39770 36170
" />
<path d="M39510 35770
L39510 36090
L39540 36140
L39600 36170
L39680 36170
L39740 36140
L39770 36110
" />
<path d="M40140 36170
L40080 36140
L40050 36090
L40050 35570
" />
<path d="M40330 36140
L40390 36170
L40510 36170
L40560 36140
L40590 36090
L40590 36060
L40560 36000
L40510 35970
L40420 35970
L40360 35940
L40330 35890
L40330 35860
L40360 35800
L40420 35770
L40510 35770
L40560 35800
" />
<path d="M41080 36140
L41020 36170
L40910 36170
L40850 36140
L40820 36090
L40820 35860
L40850 35800
L40910 35770
L41020 35770
L41080 35800
L41110 35860
L41110 35910
L40820 35970
" />
<path d="M41330 36140
L41390 36170
L41510 36170
L41560 36140
L41590 36090
L41590 36060
L41560 36000
L41510 35970
L41420 35970
L41360 35940
L41330 35890
L41330 35860
L41360 35800
L41420 35770
L41510 35770
L41560 35800
" />
<path d="M35370 37040
L35310 37070
L35200 37070
L35140 37040
L35110 36990
L35110 36760
L35140 36700
L35200 36670
L35310 36670
L35370 36700
L35400 36760
L35400 36810
L35110 36870
" />
<path d="M35600 36670
L35740 37070
L35880 36670
" />
<path d="M36340 37040
L36280 37070
L36170 37070
L36110 37040
L36080 36990
L36080 36760
L36110 36700
L36170 36670
L36280 36670
L36340 36700
L36370 36760
L36370 36810
L36080 36870
" />
<path d="M36620 37070
L36620 36670
" />
<path d="M36620 36790
L36650 36730
L36680 36700
L36740 36670
L36790 36670
" />
<path d="M36940 36670
L37080 37070
" />
<path d="M37220 36670
L37080 37070
L37020 37210
L36990 37240
L36940 37270
" />
<path d="M38230 37070
L37880 37070
" />
<path d="M38060 37070
L38060 36470
L38000 36560
L37940 36610
L37880 36640
" />
<path d="M38600 36470
L38650 36470
L38710 36500
L38740 36530
L38770 36590
L38800 36700
L38800 36840
L38770 36960
L38740 37010
L38710 37040
L38650 37070
L38600 37070
L38540 37040
L38510 37010
L38480 36960
L38450 36840
L38450 36700
L38480 36590
L38510 36530
L38540 36500
L38600 36470
" />
<path d="M39050 36840
L39510 36840
" />
<path d="M39740 36470
L40110 36470
L39910 36700
L39990 36700
L40050 36730
L40080 36760
L40110 36810
L40110 36960
L40080 37010
L40050 37040
L39990 37070
L39820 37070
L39760 37040
L39740 37010
" />
<path d="M40480 36470
L40530 36470
L40590 36500
L40620 36530
L40650 36590
L40680 36700
L40680 36840
L40650 36960
L40620 37010
L40590 37040
L40530 37070
L40480 37070
L40420 37040
L40390 37010
L40360 36960
L40330 36840
L40330 36700
L40360 36590
L40390 36530
L40420 36500
L40480 36470
" />
<path d="M41390 37070
L41390 36670
" />
<path d="M41390 36730
L41420 36700
L41480 36670
L41560 36670
L41620 36700
L41650 36760
L41650 37070
" />
<path d="M41650 36760
L41680 36700
L41740 36670
L41820 36670
L41880 36700
L41910 36760
L41910 37070
" />
<path d="M42160 37040
L42220 37070
L42340 37070
L42390 37040
L42420 36990
L42420 36960
L42390 36900
L42340 36870
L42250 36870
L42190 36840
L42160 36790
L42160 36760
L42190 36700
L42250 36670
L42340 36670
L42390 36700
" />
<path d="M35110 37940
L35170 37970
L35290 37970
L35340 37940
L35370 37890
L35370 37860
L35340 37800
L35290 37770
L35200 37770
L35140 37740
L35110 37690
L35110 37660
L35140 37600
L35200 37570
L35290 37570
L35340 37600
" />
<path d="M35860 37940
L35800 37970
L35690 37970
L35630 37940
L35600 37890
L35600 37660
L35630 37600
L35690 37570
L35800 37570
L35860 37600
L35890 37660
L35890 37710
L35600 37770
" />
<path d="M36400 37970
L36400 37660
L36370 37600
L36310 37570
L36200 37570
L36140 37600
" />
<path d="M36400 37940
L36340 37970
L36200 37970
L36140 37940
L36110 37890
L36110 37830
L36140 37770
L36200 37740
L36340 37740
L36400 37710
" />
<path d="M36650 37940
L36710 37970
L36830 37970
L36880 37940
L36910 37890
L36910 37860
L36880 37800
L36830 37770
L36740 37770
L36680 37740
L36650 37690
L36650 37660
L36680 37600
L36740 37570
L36830 37570
L36880 37600
" />
<path d="M37260 37970
L37200 37940
L37170 37910
L37140 37860
L37140 37690
L37170 37630
L37200 37600
L37260 37570
L37340 37570
L37400 37600
L37430 37630
L37460 37690
L37460 37860
L37430 37910
L37400 37940
L37340 37970
L37260 37970
" />
<path d="M37710 37570
L37710 37970
" />
<path d="M37710 37630
L37740 37600
L37800 37570
L37880 37570
L37940 37600
L37970 37660
L37970 37970
" />
<path d="M38630 37570
L38860 37570
" />
<path d="M38710 37370
L38710 37890
L38740 37940
L38800 37970
L38860 37970
" />
<path d="M39140 37970
L39080 37940
L39050 37910
L39020 37860
L39020 37690
L39050 37630
L39080 37600
L39140 37570
L39220 37570
L39280 37600
L39310 37630
L39340 37690
L39340 37860
L39310 37910
L39280 37940
L39220 37970
L39140 37970
" />
<path d="M39970 37570
L40200 37570
" />
<path d="M40050 37370
L40050 37890
L40080 37940
L40140 37970
L40200 37970
" />
<path d="M40650 37970
L40650 37660
L40620 37600
L40560 37570
L40450 37570
L40390 37600
" />
<path d="M40650 37940
L40590 37970
L40450 37970
L40390 37940
L40360 37890
L40360 37830
L40390 37770
L40450 37740
L40590 37740
L40650 37710
" />
<path d="M40900 37940
L40960 37970
L41080 37970
L41130 37940
L41160 37890
L41160 37860
L41130 37800
L41080 37770
L40990 37770
L40930 37740
L40900 37690
L40900 37660
L40930 37600
L40990 37570
L41080 37570
L41130 37600
" />
<path d="M41340 37570
L41570 37570
" />
<path d="M41420 37370
L41420 37890
L41450 37940
L41510 37970
L41570 37970
" />
<path d="M41990 37940
L41930 37970
L41820 37970
L41760 37940
L41730 37890
L41730 37660
L41760 37600
L41820 37570
L41930 37570
L41990 37600
L42020 37660
L42020 37710
L41730 37770
" />
</g>
<g style="fill:#0000C2; fill-opacity:0.0; 
stroke:#0000C2; stroke-width:0; stroke-opacity:1; 
stroke-linecap:round; stroke-linejoin:round;">
</g>
<g style="fill:#840000; fill-opacity:0.0; 
stroke:#840000; stroke-width:0; stroke-opacity:1; 
stroke-linecap:round; stroke-linejoin:round;">
</g>
<g style="fill:#840000; fill-opacity:0.0; 
stroke:#840000; stroke-width:60; stroke-opacity:1; 
stroke-linecap:round; stroke-linejoin:round;">
<rect x="77500" y="27950" width="600" height="100" rx="0" />
<rect x="77500" y="26950" width="600" height="100" rx="0" />
<rect x="77500" y="26500" width="1000" height="2000" rx="0" />
<path d="M77500 27000
L76000 27000
" />
<path d="M76890 26880
L76610 26880
" />
<path d="M76750 26880
L76750 26380
L76700 26450
L76650 26500
L76610 26520
" />
<path d="M77500 28000
L76000 28000
" />
<path d="M76610 27420
L76630 27400
L76680 27380
L76800 27380
L76840 27400
L76870 27420
L76890 27470
L76890 27520
L76870 27590
L76580 27880
L76890 27880
" />
</g>
<g style="fill:#008484; fill-opacity:0.0; 
stroke:#008484; stroke-width:60; stroke-opacity:1; 
stroke-linecap:round; stroke-linejoin:round;">
<path d="M77830 25760
L77830 26110
L77810 26180
L77760 26230
L77690 26260
L77640 26260
" />
<path d="M78050 25800
L78070 25780
L78120 25760
L78240 25760
L78280 25780
L78310 25800
L78330 25850
L78330 25900
L78310 25970
L78020 26260
L78330 26260
" />
<path d="M79260 28470
L78760 28470
L78760 28280
L78780 28230
L78800 28210
L78850 28190
L78920 28190
L78970 28210
L78990 28230
L79020 28280
L79020 28470
" />
<path d="M79260 27900
L79230 27950
L79210 27970
L79160 27990
L79020 27990
L78970 27970
L78950 27950
L78920 27900
L78920 27830
L78950 27780
L78970 27760
L79020 27730
L79160 27730
L79210 27760
L79230 27780
L79260 27830
L79260 27900
" />
<path d="M78920 27570
L79260 27470
L79020 27380
L79260 27280
L78920 27190
" />
<path d="M79230 26810
L79260 26860
L79260 26950
L79230 27000
L79180 27020
L78990 27020
L78950 27000
L78920 26950
L78920 26860
L78950 26810
L78990 26790
L79040 26790
L79090 27020
" />
<path d="M79260 26570
L78920 26570
" />
<path d="M79020 26570
L78970 26550
L78950 26520
L78920 26480
L78920 26430
" />
</g>
<g style="fill:#008400; fill-opacity:0.0; 
stroke:#008400; stroke-width:60; stroke-opacity:1; 
stroke-linecap:round; stroke-linejoin:round;">
<path d="M38000 25000
L44000 25000
" />
<path d="M44000 26000
L38000 26000
" />
<path d="M38000 27000
L44000 27000
" />
<path d="M44000 30000
L38000 30000
" />
<path d="M38000 28000
L41500 28000
" />
<path d="M41500 29000
L38000 29000
" />
<path d="M71000 25000
L73000 25000
" />
<path d="M73000 25000
L73000 26000
" />
<path d="M73000 29000
L73000 30000
" />
<path d="M73000 30000
L71000 30000
" />
<path d="M44000 29000
L43000 29000
" />
<path d="M43000 29000
L43000 44000
" />
<path d="M43000 43500
L49000 43500
" />
<path d="M52000 45500
L52000 47500
" />
<path d="M52000 40000
L52000 41500
" />
<path d="M52000 41000
L59000 41000
" />
<path d="M56000 41000
L56000 40000
" />
</g>
<g style="fill:#008400; fill-opacity:0.0; 
stroke:#008400; stroke-width:0; stroke-opacity:1; 
stroke-linecap:round; stroke-linejoin:round;">
</g>
<g style="fill:#008400; fill-opacity:1.0; 
stroke:#008400; stroke-width:100; stroke-opacity:1; 
stroke-linecap:round; stroke-linejoin:round;">
<circle cx="52000" cy="41000" r="200" /> 
</g>
<g style="fill:#008400; fill-opacity:1.0; 
stroke:#008400; stroke-width:60; stroke-opacity:1; 
stroke-linecap:round; stroke-linejoin:round;">
</g>
<g style="fill:#008400; fill-opacity:0.0; 
stroke:#008400; stroke-width:60; stroke-opacity:1; 
stroke-linecap:round; stroke-linejoin:round;">
<path d="M56000 37000
L56000 36000
" />
<path d="M52000 36000
L59000 36000
" />
<path d="M52000 34500
L52000 37000
" />
</g>
<g style="fill:#008400; fill-opacity:0.0; 
stroke:#008400; stroke-width:0; stroke-opacity:1; 
stroke-linecap:round; stroke-linejoin:round;">
</g>
<g style="fill:#008400; fill-opacity:1.0; 
stroke:#008400; stroke-width:100; stroke-opacity:1; 
stroke-linecap:round; stroke-linejoin:round;">
<circle cx="52000" cy="36000" r="200" /> 
</g>
<g style="fill:#008400; fill-opacity:1.0; 
stroke:#008400; stroke-width:60; stroke-opacity:1; 
stroke-linecap:round; stroke-linejoin:round;">
</g>
<g style="fill:#008400; fill-opacity:0.0; 
stroke:#008400; stroke-width:60; stroke-opacity:1; 
stroke-linecap:round; stroke-linejoin:round;">
<path d="M73000 25500
L76000 25500
" />
<path d="M76000 25500
L76000 27000
" />
</g>
<g style="fill:#008400; fill-opacity:0.0; 
stroke:#008400; stroke-width:0; stroke-opacity:1; 
stroke-linecap:round; stroke-linejoin:round;">
</g>
<g style="fill:#008400; fill-opacity:1.0; 
stroke:#008400; stroke-width:100; stroke-opacity:1; 
stroke-linecap:round; stroke-linejoin:round;">
<circle cx="73000" cy="25500" r="200" /> 
</g>
<g style="fill:#008400; fill-opacity:1.0; 
stroke:#008400; stroke-width:60; stroke-opacity:1; 
stroke-linecap:round; stroke-linejoin:round;">
</g>
<g style="fill:#008400; fill-opacity:0.0; 
stroke:#008400; stroke-width:60; stroke-opacity:1; 
stroke-linecap:round; stroke-linejoin:round;">
<path d="M73000 29500
L76000 29500
" />
<path d="M76000 29500
L76000 28000
" />
</g>
<g style="fill:#008400; fill-opacity:0.0; 
stroke:#008400; stroke-width:0; stroke-opacity:1; 
stroke-linecap:round; stroke-linejoin:round;">
</g>
<g style="fill:#008400; fill-opacity:1.0; 
stroke:#008400; stroke-width:100; stroke-opacity:1; 
stroke-linecap:round; stroke-linejoin:round;">
<circle cx="73000" cy="29500" r="200" /> 
</g>
<g style="fill:#008400; fill-opacity:1.0; 
stroke:#008400; stroke-width:0; stroke-opacity:1; 
stroke-linecap:round; stroke-linejoin:round;">
</g>
<g style="fill:#840000; fill-opacity:1.0; 
stroke:#840000; stroke-width:0; stroke-opacity:1; 
stroke-linecap:round; stroke-linejoin:round;">
</g>
<g style="fill:#840000; fill-opacity:0.0; 
stroke:#840000; stroke-width:100; stroke-opacity:1; 
stroke-linecap:round; stroke-linejoin:round;">
<rect x="42600" y="44500" width="800" height="2000" rx="0" />
</g>
<g style="fill:#840000; fill-opacity:0.0; 
stroke:#840000; stroke-width:60; stroke-opacity:1; 
stroke-linecap:round; stroke-linejoin:round;">
<path d="M43000 44500
L43000 44000
" />
<path d="M43000 46500
L43000 47000
" />
</g>
<g style="fill:#008484; fill-opacity:0.0; 
stroke:#008484; stroke-width:60; stroke-opacity:1; 
stroke-linecap:round; stroke-linejoin:round;">
<path d="M44060 45590
L43820 45750
" />
<path d="M44060 45870
L43560 45870
L43560 45680
L43580 45630
L43600 45610
L43650 45590
L43720 45590
L43770 45610
L43790 45630
L43820 45680
L43820 45870
" />
<path d="M44060 45110
L44060 45390
" />
<path d="M44060 45250
L43560 45250
L43630 45300
L43680 45350
L43700 45390
" />
<path d="M43260 46090
L43260 46370
" />
<path d="M43260 46230
L42760 46230
L42830 46280
L42880 46330
L42900 46370
" />
<path d="M42760 45780
L42760 45730
L42780 45680
L42800 45660
L42850 45630
L42950 45610
L43070 45610
L43160 45630
L43210 45660
L43230 45680
L43260 45730
L43260 45780
L43230 45820
L43210 45850
L43160 45870
L43070 45890
L42950 45890
L42850 45870
L42800 45850
L42780 45820
L42760 45780
" />
<path d="M42760 45300
L42760 45250
L42780 45200
L42800 45180
L42850 45150
L42950 45130
L43070 45130
L43160 45150
L43210 45180
L43230 45200
L43260 45250
L43260 45300
L43230 45340
L43210 45370
L43160 45390
L43070 45410
L42950 45410
L42850 45390
L42800 45370
L42780 45340
L42760 45300
" />
<path d="M43260 44910
L42760 44910
" />
<path d="M43260 44630
L42970 44840
" />
<path d="M42760 44630
L43040 44910
" />
</g>
<g style="fill:#008484; fill-opacity:0.0; 
stroke:#008484; stroke-width:0; stroke-opacity:1; 
stroke-linecap:round; stroke-linejoin:round;">
</g>
<g style="fill:#840000; fill-opacity:0.0; 
stroke:#840000; stroke-width:0; stroke-opacity:1; 
stroke-linecap:round; stroke-linejoin:round;">
</g>
<g style="fill:#840000; fill-opacity:0.0; 
stroke:#840000; stroke-width:60; stroke-opacity:1; 
stroke-linecap:round; stroke-linejoin:round;">
<polyline fill="none;"
points="43000,47500
43000,48000
43500,48000
43000,48500
42500,48000
43000,48000
" /> 
</g>
<g style="fill:#008484; fill-opacity:0.0; 
stroke:#008484; stroke-width:60; stroke-opacity:1; 
stroke-linecap:round; stroke-linejoin:round;">
<path d="M42620 48780
L42570 48760
L42500 48760
L42430 48780
L42380 48830
L42360 48880
L42340 48970
L42340 49040
L42360 49140
L42380 49180
L42430 49230
L42500 49260
L42550 49260
L42620 49230
L42640 49210
L42640 49040
L42550 49040
" />
<path d="M42860 49260
L42860 48760
L43140 49260
L43140 48760
" />
<path d="M43380 49260
L43380 48760
L43500 48760
L43570 48780
L43620 48830
L43640 48880
L43660 48970
L43660 49040
L43640 49140
L43620 49180
L43570 49230
L43500 49260
L43380 49260
" />
</g>
<g style="fill:#008400; fill-opacity:0.0; 
stroke:#008400; stroke-width:60; stroke-opacity:1; 
stroke-linecap:round; stroke-linejoin:round;">
<path d="M43000 47000
L43000 47500
" />
</g>
<g style="fill:#008400; fill-opacity:0.0; 
stroke:#008400; stroke-width:0; stroke-opacity:1; 
stroke-linecap:round; stroke-linejoin:round;">
</g>
<g style="fill:#008400; fill-opacity:1.0; 
stroke:#008400; stroke-width:100; stroke-opacity:1; 
stroke-linecap:round; stroke-linejoin:round;">
<circle cx="43000" cy="43500" r="200" /> 
</g>
<g style="fill:#008400; fill-opacity:1.0; 
stroke:#008400; stroke-width:0; stroke-opacity:1; 
stroke-linecap:round; stroke-linejoin:round;">
</g>
<g style="fill:#840000; fill-opacity:1.0; 
stroke:#840000; stroke-width:0; stroke-opacity:1; 
stroke-linecap:round; stroke-linejoin:round;">
</g>
<g style="fill:#840000; fill-opacity:0.0; 
stroke:#840000; stroke-width:60; stroke-opacity:1; 
stroke-linecap:round; stroke-linejoin:round;">
<circle cx="59000" cy="37800" r="300" /> 
<circle cx="59000" cy="39200" r="300" /> 
<path d="M59000 37500
L59000 36500
" />
<path d="M59000 39500
L59000 40500
" />
</g>
<g style="fill:#008484; fill-opacity:0.0; 
stroke:#008484; stroke-width:60; stroke-opacity:1; 
stroke-linecap:round; stroke-linejoin:round;">
<path d="M59290 38670
L59640 38670
L59710 38690
L59760 38740
L59790 38810
L59790 38860
" />
<path d="M59790 38170
L59790 38450
" />
<path d="M59790 38310
L59290 38310
L59360 38360
L59410 38410
L59430 38450
" />
<path d="M57990 39970
L57990 39690
" />
<path d="M58490 39830
L57990 39830
" />
<path d="M58220 39520
L58220 39350
" />
<path d="M58490 39280
L58490 39520
L57990 39520
L57990 39280
" />
<path d="M58460 39090
L58490 39020
L58490 38900
L58460 38860
L58440 38830
L58390 38810
L58340 38810
L58300 38830
L58270 38860
L58250 38900
L58220 39000
L58200 39050
L58180 39070
L58130 39090
L58080 39090
L58030 39070
L58010 39050
L57990 39000
L57990 38880
L58010 38810
" />
<path d="M57990 38660
L57990 38380
" />
<path d="M58490 38520
L57990 38520
" />
<path d="M58530 38330
L58530 37950
" />
<path d="M58030 37850
L58010 37830
L57990 37780
L57990 37660
L58010 37620
L58030 37590
L58080 37570
L58130 37570
L58200 37590
L58490 37880
L58490 37570
" />
<path d="M58490 37350
L57990 37350
L57990 37160
L58010 37110
L58030 37090
L58080 37070
L58150 37070
L58200 37090
L58220 37110
L58250 37160
L58250 37350
" />
</g>
<g style="fill:#008400; fill-opacity:0.0; 
stroke:#008400; stroke-width:60; stroke-opacity:1; 
stroke-linecap:round; stroke-linejoin:round;">
<path d="M59000 36000
L59000 36500
" />
</g>
<g style="fill:#008400; fill-opacity:0.0; 
stroke:#008400; stroke-width:0; stroke-opacity:1; 
stroke-linecap:round; stroke-linejoin:round;">
</g>
<g style="fill:#008400; fill-opacity:1.0; 
stroke:#008400; stroke-width:100; stroke-opacity:1; 
stroke-linecap:round; stroke-linejoin:round;">
<circle cx="56000" cy="36000" r="200" /> 
</g>
<g style="fill:#008400; fill-opacity:1.0; 
stroke:#008400; stroke-width:60; stroke-opacity:1; 
stroke-linecap:round; stroke-linejoin:round;">
</g>
<g style="fill:#008400; fill-opacity:0.0; 
stroke:#008400; stroke-width:60; stroke-opacity:1; 
stroke-linecap:round; stroke-linejoin:round;">
<path d="M59000 41000
L59000 40500
" />
</g>
<g style="fill:#008400; fill-opacity:0.0; 
stroke:#008400; stroke-width:0; stroke-opacity:1; 
stroke-linecap:round; stroke-linejoin:round;">
</g>
<g style="fill:#008400; fill-opacity:1.0; 
stroke:#008400; stroke-width:100; stroke-opacity:1; 
stroke-linecap:round; stroke-linejoin:round;">
<circle cx="56000" cy="41000" r="200" /> 
</g> 
</svg>
